<svg width="98" height="59" viewBox="0 0 98 59" fill="none" xmlns="http://www.w3.org/2000/svg">
<path d="M40.4665 29.0248C41.86 27.2095 45.1571 24.5741 47.0799 23.7002C48.1537 23.193 49.1998 22.9394 50.2171 22.9394C52.1385 22.9394 53.4245 23.9111 54.0751 25.8546C54.2157 26.2778 54.2874 26.7712 54.2874 27.3336C54.2874 29.2206 53.5803 31.5583 52.1675 34.3467C52.5065 34.5438 52.6761 34.9394 52.6761 35.5294C53.6368 35.3033 54.3287 34.4846 54.3287 34.4846C54.3287 34.4846 55.8132 33.142 56.2364 33.2826C56.6885 33.4522 56.9146 33.6782 56.9146 33.9608C56.9146 34.2723 56.7312 34.7782 56.2791 35.2868C54.8374 37.2096 53.1268 38.1441 51.2343 38.2847C50.6127 38.3412 50.0903 38.2572 49.6657 38.0297C47.1791 41.3089 44.4086 42.9477 41.3569 42.9477C39.9151 42.9477 38.7711 42.4819 37.9234 41.5487C37.0757 40.6155 36.5519 39.3557 36.6512 37.7761C36.7545 36.1262 37.208 34.9339 37.6781 33.8422C38.1481 32.752 39.0716 30.8415 40.4665 29.0248ZM44.2391 38.6679C44.4362 38.752 44.6347 38.7947 44.8332 38.7947C45.7374 38.7947 46.5423 37.9897 47.2494 36.3784C46.8814 35.7278 46.6981 35.0635 46.6981 34.3853C46.6981 33.9897 46.7684 33.6217 46.9104 33.2826C47.277 32.3495 48.1964 32.0104 49.6657 32.2654C50.7684 30.1455 51.3184 28.5631 51.3184 27.5169C51.3184 26.7257 50.9366 26.3301 50.1743 26.3301C49.0441 26.3301 47.5168 28.0972 45.5954 31.6286C44.1261 34.2875 43.3914 36.14 43.3914 37.1848C43.3914 37.9195 43.674 38.4143 44.2391 38.6679Z" fill="#E4A534"/>
<path d="M60.1787 26.8829C59.5281 26.3467 59.2042 25.6823 59.2042 24.8897C59.2042 24.2405 59.4164 23.4907 59.8396 22.643C60.5453 21.2867 61.5777 20.6085 62.934 20.6085C63.4426 20.6085 63.8727 20.7505 64.2269 21.0331C64.5798 21.3156 64.7562 21.754 64.7562 22.3467C64.7562 22.9407 64.5867 23.5899 64.2476 24.297C64.9823 24.7216 66.085 24.6926 67.5543 24.2116C68.7976 23.787 69.6742 23.5762 70.1829 23.5762C70.9465 23.5762 71.3972 23.9015 71.5392 24.5507C71.5957 24.7767 71.6233 25.0028 71.6233 25.2288C71.6233 25.7099 71.4813 26.2392 71.1987 26.8181C70.9162 27.3984 70.6336 27.9566 70.351 28.4928C69.4179 30.4721 68.3717 32.7602 67.2139 35.3612C66.8748 36.2944 66.8748 36.8595 67.2139 37.0566C67.6935 37.0566 68.1429 36.6734 68.7728 36.1276C69.4027 35.5817 70.0119 34.8953 71.0292 33.8781C71.3117 33.4825 71.6936 33.284 72.1732 33.284C72.4558 33.284 72.6529 33.3681 72.7659 33.539C72.992 33.7651 73.105 33.9635 73.105 34.1317C73.105 34.3302 72.8514 34.7396 72.3414 35.3612C69.6288 38.6403 66.8445 40.9712 63.9899 42.3564C63.1987 42.752 62.4351 42.9491 61.7004 42.9491C60.6266 42.9491 59.772 42.5673 59.1352 41.8051C58.4998 41.0415 58.2241 40.2517 58.3082 39.4315C58.5053 37.6507 59.9471 35.08 62.6322 31.7168C63.677 30.417 64.2007 29.3998 64.2007 28.6651C64.2007 27.9594 63.5929 27.6051 62.3772 27.6051C59.3255 31.59 56.6142 34.8347 56.6142 34.8347C56.6142 34.8347 54.8733 36.0407 54.3647 35.7017C54.1387 35.5886 54.0256 35.4053 54.0256 35.1503C54.0256 34.8967 54.1387 34.6706 54.3647 34.4722C55.5791 33.1158 56.5274 32.0131 57.2055 31.1655C58.3702 29.6961 59.3585 28.2681 60.1787 26.8829Z" fill="#E4A534"/>
<path d="M80.5275 39.0925C78.0685 41.6645 76.0189 42.9505 74.38 42.9505C73.7859 42.9505 73.236 42.8085 72.7273 42.526C71.5406 41.8768 70.9465 40.7451 70.9465 39.1352C70.9465 38.7396 70.9892 38.3302 71.0733 37.9057C71.1863 37.171 71.2856 36.7051 71.3696 36.5066C71.5392 36.0545 71.8355 35.6452 72.2601 35.2771C71.553 35.9842 71.0444 36.3371 70.7342 36.3371C70.4806 36.3371 70.2394 36.2103 70.0133 35.9553C69.7873 35.7017 69.7239 35.7389 69.7239 35.4839C69.7239 35.1172 70.2532 34.701 70.7825 34.129C71.2304 33.6451 72.0768 32.7189 73.4896 30.9105C75.1285 28.8195 76.6695 27.1654 78.1099 25.9511C80.2009 24.1702 82.165 23.2798 84.0024 23.2798C85.1602 23.2798 86.1926 23.6341 87.0968 24.3398C88.8777 21.062 90.8556 17.5003 93.0321 13.6574C93.2292 13.3184 93.4415 12.9655 93.6675 12.5975C93.8646 12.3425 94.1899 12.2584 94.642 12.3425C95.4332 12.4555 96.1114 12.9503 96.6765 13.8256C97.3271 14.8153 97.651 15.6202 97.651 16.2419C97.651 16.949 96.2795 20.1137 93.5393 25.7375C92.3526 28.3095 90.9108 31.2633 89.2154 34.5976C88.9604 34.9656 88.8336 35.3047 88.8336 35.6148C88.8336 36.1235 89.1299 36.3785 89.724 36.3785C90.0631 36.3785 90.3456 36.2654 90.5717 36.0394C91.0514 35.5032 91.702 34.8802 92.5221 34.1744C92.9177 33.9484 93.1575 33.8354 93.243 33.8354C93.4401 33.8354 93.6951 33.9484 94.0066 34.1744C94.1472 34.2875 94.2189 34.4294 94.2189 34.599C94.2189 35.08 93.2581 36.3661 91.3367 38.457C88.7647 41.2841 86.1651 42.6969 83.5365 42.6969C82.0107 42.6955 81.0072 41.495 80.5275 39.0925ZM79.3821 36.8457C80.2863 36.8457 81.6288 35.5032 83.4097 32.8181C84.7936 30.7271 85.4869 29.1586 85.4869 28.1124C85.4869 27.4632 85.2043 27.1379 84.6392 27.1379C83.848 27.1379 82.42 28.5934 80.358 31.5045C79.1147 33.2565 78.4931 34.6555 78.4931 35.7017C78.4917 36.4639 78.7894 36.8457 79.3821 36.8457Z" fill="#E4A534"/>
<path d="M12.9709 2.46095C14.7793 1.19423 16.8965 0.597394 19.3211 0.670448C23.6257 0.779339 25.7801 3.34861 25.7801 8.3769C25.7801 9.75251 25.6174 10.9283 25.2922 11.9041C25.0027 12.7008 24.0075 14.9986 22.3066 18.7974C25.3101 15.4328 28.2226 12.7188 31.0455 10.6567C34.0117 8.55885 36.4183 7.50853 38.264 7.50853C41.2302 7.50853 42.7147 8.77525 42.7147 11.3073C42.7147 12.2487 42.4983 13.226 42.0641 14.2377C39.3143 19.7374 36.2378 26.0338 32.8373 33.1255C32.4748 33.9939 32.2943 34.6996 32.2943 35.2427C32.2943 35.8588 32.512 36.1662 32.9462 36.1662C33.4163 36.1662 34.1041 35.7857 35.0083 35.0263C35.9125 34.2668 37.0882 33.1806 38.5355 31.7692C38.8966 31.4081 39.4039 31.2261 40.0559 31.2261C40.7423 31.1903 41.0869 31.426 41.0869 31.9318C41.0869 32.366 40.7795 32.9449 40.1647 33.6686C38.4638 35.6589 36.4004 37.5763 33.9773 39.4219C30.8649 41.7748 28.3508 42.9491 26.4334 42.9491C24.9862 42.9491 23.8821 42.3881 23.1226 41.2661C22.472 40.2889 22.1453 39.0594 22.1453 37.5763C22.1453 36.4184 22.3438 35.3874 22.7422 34.4818C24.8042 30.6472 27.3018 25.6713 30.2322 19.5568C30.5575 18.7615 30.7202 18.0916 30.7202 17.5486C30.7202 16.6802 30.3577 16.246 29.634 16.246C28.9462 16.246 28.0599 16.6995 26.9751 17.6023C24.5506 19.6644 21.4396 23.4094 17.6395 28.8374C17.0964 29.9966 16.3548 31.5514 15.4148 33.5046L14.3286 35.7844C12.9172 38.384 11.6684 40.0573 10.5836 40.8058C8.91852 41.9815 6.94745 42.5687 4.66763 42.5687C3.29202 42.5687 2.6056 42.0808 2.6056 41.1035C2.6056 40.3082 3.16659 38.7341 4.28858 36.3812C4.90333 35.0786 5.66282 33.5776 6.5684 31.8767L7.70831 29.5431C12.7738 19.448 15.7773 13.2798 16.7187 11.0358C17.044 10.2763 17.2066 9.57057 17.2066 8.9186C17.2066 7.03851 16.2845 6.0957 14.4389 6.0957C13.9316 6.0957 13.4258 6.2046 12.9199 6.421C11.9068 7.07297 11.0123 7.4148 9.2259 9.14328C7.43953 10.8718 4.35199 12.9545 3.15143 15.4328C2.11352 17.5761 0.350586 14.8718 0.350586 14.8718C0.350586 14.8718 6.91024 7.26869 8.9006 5.50025C10.8868 3.73594 12.9709 2.46095 12.9709 2.46095Z" fill="#E4A534"/>
<path d="M12.1757 46.9354H13.4962C13.7015 46.9354 13.8973 46.9547 14.0834 46.9946C14.2694 47.0346 14.4348 47.1022 14.5796 47.1959C14.7243 47.2896 14.8387 47.4164 14.9255 47.5736C15.011 47.7307 15.0537 47.925 15.0537 48.1552C15.0537 48.3978 15.0082 48.5991 14.9159 48.759C14.8235 48.9188 14.705 49.0443 14.5603 49.1366C14.4155 49.229 14.257 49.2938 14.0861 49.331C13.9138 49.3682 13.7512 49.3875 13.5954 49.3875H12.7022V51.3861H12.1743V46.9354H12.1757ZM12.7036 48.8968H13.5968C13.8614 48.8968 14.0751 48.8375 14.2405 48.7176C14.4059 48.5977 14.4886 48.413 14.4886 48.1608C14.4886 47.9099 14.4059 47.7238 14.2405 47.6039C14.0751 47.484 13.8601 47.4247 13.5968 47.4247H12.7036V48.8968Z" fill="#E4A534"/>
<path d="M22.1895 46.9354H23.328C23.5416 46.9354 23.7539 46.9478 23.9662 46.9726C24.1784 46.9974 24.3673 47.0525 24.5354 47.1366C24.7036 47.2207 24.8387 47.3434 24.9434 47.5046C25.0482 47.6659 25.1006 47.8851 25.1006 48.1621C25.1006 48.4888 25.0013 48.7534 24.8056 48.9547C24.6085 49.1559 24.3356 49.2841 23.9882 49.3379L25.2522 51.3875H24.6044L23.3969 49.3889H22.7187V51.3875H22.1908V46.9354H22.1895ZM22.7174 48.8968H23.1888C23.3349 48.8968 23.4879 48.8927 23.645 48.8844C23.8021 48.8761 23.9469 48.8486 24.0792 48.8031C24.2115 48.7576 24.3204 48.6845 24.4059 48.5867C24.4913 48.4888 24.5354 48.3468 24.5354 48.1621C24.5354 48.0022 24.5037 47.8754 24.4417 47.7789C24.3783 47.6825 24.2956 47.608 24.1936 47.5556C24.0902 47.5033 23.9758 47.4688 23.8476 47.4523C23.7194 47.4357 23.5913 47.4275 23.4617 47.4275H22.7201V48.8968H22.7174Z" fill="#E4A534"/>
<path d="M32.3163 46.9354H35.113V47.4261H32.8442V48.821H34.9628V49.3117H32.8442V50.8954H35.2261V51.3861H32.3149V46.9354H32.3163Z" fill="#E4A534"/>
<path d="M45.448 47.8534C45.3143 47.6728 45.1489 47.5377 44.9518 47.4481C44.7547 47.3585 44.5493 47.313 44.3357 47.313C44.089 47.313 43.8615 47.3627 43.6534 47.4633C43.4467 47.5639 43.2675 47.699 43.1158 47.8685C42.9656 48.0381 42.8471 48.2352 42.7644 48.4598C42.6803 48.6845 42.6389 48.9175 42.6389 49.1601C42.6389 49.4206 42.6803 49.6618 42.7644 49.8865C42.8484 50.1111 42.9642 50.3055 43.1131 50.4709C43.262 50.6363 43.4398 50.7672 43.6479 50.8637C43.856 50.9602 44.0848 51.0084 44.3357 51.0084C44.6086 51.0084 44.8512 50.9547 45.0649 50.8486C45.2785 50.7424 45.4646 50.588 45.6245 50.3868L46.0201 50.7204C45.8188 50.9892 45.5762 51.1863 45.2937 51.3117C45.0111 51.4371 44.6913 51.5005 44.3343 51.5005C44.0159 51.5005 43.7182 51.4413 43.4411 51.3241C43.1641 51.2069 42.9243 51.0443 42.7216 50.8375C42.5176 50.6308 42.3591 50.384 42.2433 50.0987C42.1276 49.8134 42.071 49.5019 42.071 49.1614C42.071 48.8348 42.1262 48.5288 42.2378 48.2434C42.3481 47.9581 42.5052 47.7114 42.7065 47.5019C42.9077 47.2924 43.1462 47.127 43.4232 47.0057C43.7003 46.8844 44.0035 46.8237 44.3343 46.8237C44.6362 46.8237 44.9256 46.8789 45.2055 46.9877C45.4839 47.0966 45.7182 47.2745 45.907 47.5226L45.448 47.8534Z" fill="#E4A534"/>
<path d="M53.0415 46.9354H53.5694V51.3861H53.0415V46.9354Z" fill="#E4A534"/>
<path d="M63.0306 51.4991C62.6916 51.4991 62.38 51.4399 62.0975 51.3227C61.8149 51.2056 61.5696 51.0429 61.3614 50.8362C61.1533 50.6294 60.992 50.3813 60.8776 50.0946C60.7618 49.8079 60.7053 49.4964 60.7053 49.1614C60.7053 48.8265 60.7632 48.515 60.8776 48.2283C60.9934 47.9416 61.1547 47.6935 61.3614 47.4867C61.5682 47.28 61.8135 47.1173 62.0975 47.0001C62.38 46.883 62.6916 46.8237 63.0306 46.8237C63.3697 46.8237 63.6812 46.883 63.9638 47.0001C64.2464 47.1173 64.4917 47.28 64.6998 47.4867C64.9066 47.6935 65.0692 47.9416 65.1836 48.2283C65.298 48.515 65.3559 48.8265 65.3559 49.1614C65.3559 49.4964 65.298 49.8079 65.1836 50.0946C65.0679 50.3813 64.9066 50.6294 64.6998 50.8362C64.4931 51.0429 64.2477 51.2056 63.9638 51.3227C63.6812 51.4399 63.3697 51.4991 63.0306 51.4991ZM63.0306 51.0084C63.2898 51.0084 63.5282 50.9602 63.7446 50.8637C63.961 50.7672 64.1457 50.6349 64.3015 50.4681C64.4559 50.3 64.5772 50.1042 64.6626 49.8809C64.7481 49.6563 64.7908 49.4164 64.7908 49.1614C64.7908 48.9064 64.7481 48.6652 64.6626 48.4419C64.5772 48.2173 64.4559 48.0215 64.3015 47.8547C64.1471 47.6866 63.961 47.5556 63.7446 47.4591C63.5282 47.3627 63.2911 47.3144 63.0306 47.3144C62.7701 47.3144 62.533 47.3627 62.3166 47.4591C62.1002 47.5556 61.9155 47.688 61.7598 47.8547C61.604 48.0229 61.4841 48.2186 61.3986 48.4419C61.3132 48.6666 61.2705 48.9064 61.2705 49.1614C61.2705 49.4178 61.3132 49.6576 61.3986 49.8809C61.4841 50.1056 61.6054 50.3013 61.7598 50.4681C61.9142 50.6363 62.1002 50.7672 62.3166 50.8637C62.533 50.9602 62.7701 51.0084 63.0306 51.0084Z" fill="#E4A534"/>
<path d="M75.8287 49.688C75.8287 49.9306 75.7983 50.1621 75.7377 50.3799C75.677 50.5977 75.5806 50.7893 75.4482 50.9547C75.3159 51.1201 75.1436 51.2524 74.93 51.3503C74.7163 51.4482 74.4558 51.4978 74.1498 51.4978C73.8438 51.4978 73.5847 51.4482 73.3696 51.3503C73.156 51.2524 72.9837 51.1201 72.8514 50.9547C72.7191 50.7893 72.6226 50.5977 72.5619 50.3799C72.5013 50.1621 72.4709 49.9319 72.4709 49.688V46.9354H72.9989V49.6135C72.9989 49.7941 73.0182 49.9678 73.0554 50.1346C73.0926 50.3027 73.156 50.4516 73.2442 50.5812C73.3324 50.7107 73.4496 50.8155 73.5957 50.8927C73.7418 50.9699 73.9265 51.0085 74.1484 51.0085C74.3703 51.0085 74.555 50.9699 74.7012 50.8927C74.8473 50.8155 74.9658 50.7107 75.0526 50.5812C75.1409 50.4516 75.2029 50.3027 75.2415 50.1346C75.2787 49.9664 75.298 49.7927 75.298 49.6135V46.9354H75.8259V49.688H75.8287Z" fill="#E4A534"/>
<path d="M85.3147 47.721C85.2265 47.5791 85.1093 47.4743 84.9632 47.4095C84.8171 47.3448 84.6641 47.3117 84.5042 47.3117C84.387 47.3117 84.2713 47.3268 84.1582 47.3558C84.0452 47.3847 83.9432 47.4288 83.8536 47.4881C83.764 47.5474 83.691 47.6246 83.6372 47.721C83.5821 47.8175 83.5559 47.9306 83.5559 48.0601C83.5559 48.1607 83.571 48.2503 83.6028 48.3275C83.6345 48.4047 83.6855 48.475 83.7571 48.5384C83.8288 48.6018 83.9253 48.6597 84.0466 48.7148C84.1679 48.77 84.3167 48.8237 84.4932 48.8789C84.6655 48.934 84.8323 48.9919 84.9935 49.0553C85.1548 49.1187 85.2968 49.1973 85.4208 49.2938C85.5449 49.3902 85.6427 49.5102 85.7158 49.6549C85.7888 49.7996 85.8261 49.9802 85.8261 50.198C85.8261 50.4199 85.782 50.6129 85.6937 50.7769C85.6055 50.9409 85.4897 51.076 85.345 51.1821C85.2003 51.2896 85.0335 51.3682 84.8447 51.4206C84.6558 51.473 84.4615 51.4992 84.2602 51.4992C84.1307 51.4992 83.9997 51.4881 83.8702 51.4647C83.7406 51.4413 83.6152 51.4054 83.4966 51.3572C83.3767 51.3089 83.2651 51.2455 83.1603 51.1683C83.0555 51.0912 82.9659 50.996 82.8901 50.8816L83.3422 50.5109C83.4387 50.6749 83.5724 50.7976 83.7447 50.8816C83.917 50.9657 84.099 51.0071 84.2919 51.0071C84.405 51.0071 84.5194 50.9905 84.6338 50.9575C84.7496 50.9244 84.8529 50.8747 84.9453 50.81C85.0376 50.7452 85.1134 50.6639 85.1713 50.5674C85.2292 50.4709 85.2596 50.3592 85.2596 50.2338C85.2596 50.096 85.2361 49.9829 85.1906 49.8975C85.1451 49.812 85.0735 49.7376 84.977 49.6742C84.8805 49.6108 84.7592 49.5543 84.6131 49.5047C84.467 49.455 84.2947 49.3958 84.0976 49.3282C83.9377 49.2786 83.7916 49.2207 83.6579 49.1559C83.5242 49.0911 83.407 49.0112 83.3092 48.9175C83.2113 48.8237 83.1327 48.7107 83.0762 48.5784C83.0197 48.4461 82.9908 48.2889 82.9908 48.1042C82.9908 47.8906 83.0321 47.7045 83.1162 47.5446C83.2003 47.3847 83.3133 47.2524 83.4553 47.1449C83.5972 47.0374 83.7585 46.9574 83.9391 46.9023C84.1196 46.8472 84.3085 46.821 84.5042 46.821C84.7551 46.821 84.9853 46.8596 85.192 46.9368C85.4001 47.0139 85.5848 47.149 85.7489 47.342L85.3147 47.721Z" fill="#E4A534"/>
<path d="M26.8304 53.5433H26.5547H25.7883H25.6077L25.5361 53.7087L24.2624 56.6294L22.9999 53.7087L22.9282 53.5419H22.7476H21.962H21.6863V53.8176V58.2683V58.544H21.962H22.4899H22.7655V58.2683V55.8506L23.8462 58.3772L23.9179 58.544H24.0998H24.421H24.6029L24.6746 58.3772L25.7552 55.8506V58.2683V58.544H26.0309H26.5588H26.8345V58.2683V53.8176V53.5433H26.8304Z" fill="#E4A534"/>
<path d="M37.0207 53.5433H36.745H33.9483H33.6726V53.8189V58.2697V58.5454H33.9483H36.8594H37.1351V58.2697V57.779V57.5033H36.8594H34.7532V56.4709H36.5961H36.8718V56.1953V55.7046V55.4289H36.5961H34.7532V54.5853H36.7464H37.022V54.3096V53.8189V53.5433H37.0207Z" fill="#E4A534"/>
<path d="M47.2233 53.5433H46.9477H43.4783H43.2026V53.8189V54.3096V54.5853H43.4783H44.6734V58.2697V58.5454H44.949H45.4769H45.7526V58.2697V54.5853H46.9477H47.2233V54.3096V53.8189V53.5433Z" fill="#E4A534"/>
<path d="M57.3653 58.1608L55.4728 53.7101L55.4011 53.5419H55.2192H54.723H54.5438L54.4707 53.7059L52.5093 58.1567L52.3384 58.544H52.7615H53.3584H53.5417L53.612 58.3745L53.9993 57.4496H55.8574L56.2392 58.3731L56.3095 58.544H56.4942H57.1103H57.5266L57.3653 58.1608ZM54.0255 56.6846L54.949 54.4971H54.9614L55.8408 56.6846H54.0255Z" fill="#E4A534"/>
<path d="M64.7934 53.5433H64.5177H63.9898H63.7141V53.8189V58.2697V58.5454H63.9898H66.5549H66.8306V58.2697V57.779V57.5033H66.5549H64.7934V53.8189V53.5433Z" fill="#E4A534"/>
<path d="M75.5307 54.6046C75.4425 54.4626 75.3254 54.3579 75.1793 54.2931C75.0332 54.2283 74.8802 54.1952 74.7203 54.1952C74.6031 54.1952 74.4873 54.2104 74.3743 54.2393C74.2613 54.2683 74.1593 54.3124 74.0697 54.3716C73.9801 54.4309 73.907 54.5081 73.8533 54.6046C73.7981 54.7011 73.7719 54.8141 73.7719 54.9437C73.7719 55.0443 73.7871 55.1339 73.8188 55.2111C73.8505 55.2882 73.9015 55.3586 73.9732 55.422C74.0449 55.4854 74.1413 55.5432 74.2626 55.5984C74.3839 55.6535 74.5328 55.7073 74.7092 55.7624C74.8815 55.8175 75.0483 55.8754 75.2096 55.9388C75.3709 56.0022 75.5128 56.0808 75.6369 56.1773C75.7609 56.2738 75.8588 56.3937 75.9319 56.5384C76.0049 56.6832 76.0421 56.8637 76.0421 57.0815C76.0421 57.3034 75.998 57.4964 75.9098 57.6604C75.8216 57.8245 75.7058 57.9595 75.5611 58.0657C75.4163 58.1732 75.2496 58.2517 75.0607 58.3041C74.8719 58.3565 74.6775 58.3827 74.4763 58.3827C74.3467 58.3827 74.2158 58.3717 74.0862 58.3482C73.9567 58.3248 73.8312 58.289 73.7127 58.2407C73.5928 58.1925 73.4811 58.1291 73.3764 58.0519C73.2716 57.9747 73.182 57.8796 73.1062 57.7652L73.5583 57.3944C73.6548 57.5584 73.7885 57.6811 73.9608 57.7652C74.1331 57.8493 74.315 57.8906 74.508 57.8906C74.621 57.8906 74.7354 57.8741 74.8498 57.841C74.9656 57.8079 75.069 57.7583 75.1613 57.6935C75.2537 57.6287 75.3295 57.5474 75.3874 57.4509C75.4453 57.3544 75.4756 57.2428 75.4756 57.1173C75.4756 56.9795 75.4522 56.8665 75.4067 56.781C75.3612 56.6956 75.2895 56.6211 75.193 56.5577C75.0966 56.4943 74.9753 56.4378 74.8292 56.3882C74.6831 56.3386 74.5108 56.2793 74.3137 56.2118C74.1538 56.1621 74.0077 56.1042 73.874 56.0395C73.7403 55.9747 73.6231 55.8947 73.5252 55.801C73.4274 55.7073 73.3488 55.5942 73.2923 55.4619C73.2358 55.3296 73.2068 55.1725 73.2068 54.9878C73.2068 54.7741 73.2482 54.588 73.3322 54.4281C73.4163 54.2683 73.5294 54.1359 73.6713 54.0284C73.8133 53.9209 73.9746 53.841 74.1551 53.7858C74.3357 53.7307 74.5245 53.7045 74.7203 53.7045C74.9711 53.7045 75.2013 53.7431 75.4081 53.8203C75.6162 53.8975 75.8009 54.0326 75.9649 54.2255L75.5307 54.6046Z" fill="#E4A534"/>
<path d="M74.7203 53.4288C74.497 53.4288 74.2806 53.4605 74.0752 53.5226C73.8643 53.586 73.6727 53.6825 73.5059 53.8079C73.3309 53.9388 73.1903 54.1042 73.0883 54.2986C72.9835 54.4971 72.9312 54.7286 72.9312 54.9864C72.9312 55.2069 72.967 55.4041 73.0387 55.5695C73.109 55.7349 73.2096 55.8796 73.3336 55.9995C73.4522 56.1125 73.5928 56.2104 73.7527 56.2876C73.8988 56.3579 74.0587 56.4213 74.2296 56.475C74.4198 56.5398 74.5921 56.5991 74.7382 56.6487C74.8623 56.6914 74.9643 56.7383 75.0414 56.7893C75.098 56.8265 75.1393 56.8679 75.1627 56.912C75.1793 56.9437 75.1986 57.0043 75.1986 57.1174C75.1986 57.1918 75.1834 57.2538 75.1503 57.3076C75.1117 57.3724 75.0621 57.4247 75.0015 57.4675C74.9339 57.5157 74.8581 57.5516 74.7713 57.5764C74.6817 57.6026 74.5921 57.6163 74.5053 57.6163C74.3536 57.6163 74.2144 57.5846 74.0793 57.5185C73.9567 57.4578 73.8629 57.3724 73.794 57.2552L73.63 56.9781L73.3819 57.1821L72.9298 57.5529L72.7368 57.7114L72.8747 57.9196C72.967 58.0588 73.08 58.1787 73.211 58.2752C73.3337 58.3662 73.4673 58.4406 73.6079 58.4971C73.7444 58.5522 73.8891 58.5936 74.0366 58.6198C74.1827 58.646 74.3302 58.6584 74.4749 58.6584C74.6996 58.6584 74.9215 58.6281 75.1338 58.5702C75.3543 58.5095 75.5528 58.4144 75.7237 58.2876C75.9002 58.1567 76.0449 57.9899 76.151 57.7914C76.2599 57.5888 76.3164 57.3503 76.3164 57.0829C76.3164 56.8224 76.2696 56.5977 76.1772 56.4144C76.0849 56.2338 75.9608 56.0808 75.8051 55.9595C75.6603 55.8465 75.4935 55.7528 75.3088 55.6811C75.1434 55.6163 74.9698 55.5557 74.792 55.4992C74.6266 55.4482 74.4873 55.3972 74.3757 55.3475C74.2806 55.3048 74.2062 55.2607 74.1565 55.2166C74.1179 55.1821 74.0904 55.1463 74.0752 55.1091C74.0573 55.065 74.0476 55.0098 74.0476 54.9451C74.0476 54.8624 74.0628 54.7962 74.0931 54.7411C74.1262 54.6832 74.1676 54.6391 74.2199 54.6046C74.2847 54.5619 74.3605 54.5302 74.4432 54.5081C74.5328 54.4847 74.6266 54.4723 74.7203 54.4723C74.8416 54.4723 74.9546 54.4971 75.0676 54.5467C75.1627 54.5894 75.2385 54.6556 75.2964 54.7507L75.4674 55.0264L75.7127 54.8141L76.1469 54.4364L76.3523 54.2572L76.1758 54.0491C75.9829 53.8203 75.7568 53.6577 75.506 53.5639C75.2661 53.4743 75.0028 53.4288 74.7203 53.4288Z" fill="#E4A534"/>
</svg>
