<?xml version="1.0" encoding="utf-8"?>
<!-- Generator: Adobe Illustrator 28.1.0, SVG Export Plug-In . SVG Version: 6.00 Build 0)  -->
<svg version="1.1" id="Layer_1" xmlns="http://www.w3.org/2000/svg" xmlns:xlink="http://www.w3.org/1999/xlink" x="0px" y="0px"
	 viewBox="0 0 995.38 978.15" style="enable-background:new 0 0 995.38 978.15;" xml:space="preserve">
<style type="text/css">
	.st0{fill:#E4A534;}
	.st1{fill:#FBB040;}
</style>
<g>
	<g>
		<path class="st0" d="M435.78,475.38c10.11-13.17,34.03-32.29,47.98-38.63c7.79-3.68,15.38-5.52,22.76-5.52
			c13.94,0,23.27,7.05,27.99,21.15c1.02,3.07,1.54,6.65,1.54,10.73c0,13.69-5.13,30.65-15.38,50.88c2.46,1.43,3.69,4.3,3.69,8.58
			c6.97-1.64,11.99-7.58,11.99-7.58s10.77-9.74,13.84-8.72c3.28,1.23,4.92,2.87,4.92,4.92c0,2.26-1.33,5.93-4.61,9.62
			c-10.46,13.95-22.87,20.73-36.6,21.75c-4.51,0.41-8.3-0.2-11.38-1.85c-18.04,23.79-38.14,35.68-60.28,35.68
			c-10.46,0-18.76-3.38-24.91-10.15c-6.15-6.77-9.95-15.91-9.23-27.37c0.75-11.97,4.04-20.62,7.45-28.54
			C418.96,502.42,425.66,488.56,435.78,475.38z M463.15,545.34c1.43,0.61,2.87,0.92,4.31,0.92c6.56,0,12.4-5.84,17.53-17.53
			c-2.67-4.72-4-9.54-4-14.46c0-2.87,0.51-5.54,1.54-8c2.66-6.77,9.33-9.23,19.99-7.38c8-15.38,11.99-26.86,11.99-34.45
			c0-5.74-2.77-8.61-8.3-8.61c-8.2,0-19.28,12.82-33.22,38.44C462.33,513.56,457,527,457,534.58
			C457,539.91,459.05,543.5,463.15,545.34z"/>
		<path class="st0" d="M578.79,459.84c-4.72-3.89-7.07-8.71-7.07-14.46c0-4.71,1.54-10.15,4.61-16.3
			c5.12-9.84,12.61-14.76,22.45-14.76c3.69,0,6.81,1.03,9.38,3.08c2.56,2.05,3.84,5.23,3.84,9.53c0,4.31-1.23,9.02-3.69,14.15
			c5.33,3.08,13.33,2.87,23.99-0.62c9.02-3.08,15.38-4.61,19.07-4.61c5.54,0,8.81,2.36,9.84,7.07c0.41,1.64,0.61,3.28,0.61,4.92
			c0,3.49-1.03,7.33-3.08,11.53c-2.05,4.21-4.1,8.26-6.15,12.15c-6.77,14.36-14.36,30.96-22.76,49.83c-2.46,6.77-2.46,10.87,0,12.3
			c3.48,0,6.74-2.78,11.31-6.74c4.57-3.96,8.99-8.94,16.37-16.32c2.05-2.87,4.82-4.31,8.3-4.31c2.05,0,3.48,0.61,4.3,1.85
			c1.64,1.64,2.46,3.08,2.46,4.3c0,1.44-1.84,4.41-5.54,8.92c-19.68,23.79-39.88,40.7-60.59,50.75c-5.74,2.87-11.28,4.3-16.61,4.3
			c-7.79,0-13.99-2.77-18.61-8.3c-4.61-5.54-6.61-11.27-6-17.22c1.43-12.92,11.89-31.57,31.37-55.97
			c7.58-9.43,11.38-16.81,11.38-22.14c0-5.12-4.41-7.69-13.23-7.69c-22.14,28.91-41.81,52.45-41.81,52.45s-12.63,8.75-16.32,6.29
			c-1.64-0.82-2.46-2.15-2.46-4c0-1.84,0.82-3.48,2.46-4.92c8.81-9.84,15.69-17.84,20.61-23.99
			C565.67,480.25,572.84,469.89,578.79,459.84z"/>
		<path class="st0" d="M726.42,548.42c-17.84,18.66-32.71,27.99-44.6,27.99c-4.31,0-8.3-1.03-11.99-3.08
			c-8.61-4.71-12.92-12.92-12.92-24.6c0-2.87,0.31-5.84,0.92-8.92c0.82-5.33,1.54-8.71,2.15-10.15c1.23-3.28,3.38-6.25,6.46-8.92
			c-5.13,5.13-8.82,7.69-11.07,7.69c-1.84,0-3.59-0.92-5.23-2.77c-1.64-1.84-2.1-1.57-2.1-3.42c0-2.66,3.84-5.68,7.68-9.83
			c3.25-3.51,9.39-10.23,19.64-23.35c11.89-15.17,23.07-27.17,33.52-35.98c15.17-12.92,29.42-19.38,42.75-19.38
			c8.4,0,15.89,2.57,22.45,7.69c12.92-23.78,27.27-49.62,43.06-77.5c1.43-2.46,2.97-5.02,4.61-7.69c1.43-1.85,3.79-2.46,7.07-1.85
			c5.74,0.82,10.66,4.41,14.76,10.76c4.72,7.18,7.07,13.02,7.07,17.53c0,5.13-9.95,28.09-29.83,68.89
			c-8.61,18.66-19.07,40.09-31.37,64.28c-1.85,2.67-2.77,5.13-2.77,7.38c0,3.69,2.15,5.54,6.46,5.54c2.46,0,4.51-0.82,6.15-2.46
			c3.48-3.89,8.2-8.41,14.15-13.53c2.87-1.64,4.61-2.46,5.23-2.46c1.43,0,3.28,0.82,5.54,2.46c1.02,0.82,1.54,1.85,1.54,3.08
			c0,3.49-6.97,12.82-20.91,27.99c-18.66,20.51-37.52,30.76-56.59,30.76C737.18,574.56,729.9,565.85,726.42,548.42z M718.11,532.12
			c6.56,0,16.3-9.74,29.22-29.22c10.04-15.17,15.07-26.55,15.07-34.14c0-4.71-2.05-7.07-6.15-7.07c-5.74,0-16.1,10.56-31.06,31.68
			c-9.02,12.71-13.53,22.86-13.53,30.45C711.65,529.35,713.81,532.12,718.11,532.12z"/>
		<path class="st0" d="M236.3,282.66c13.12-9.19,28.48-13.52,46.07-12.99c31.23,0.79,46.86,19.43,46.86,55.91
			c0,9.98-1.18,18.51-3.54,25.59c-2.1,5.78-9.32,22.45-21.66,50.01c21.79-24.41,42.92-44.1,63.4-59.06
			c21.52-15.22,38.98-22.84,52.37-22.84c21.52,0,32.29,9.19,32.29,27.56c0,6.83-1.57,13.92-4.72,21.26
			c-19.95,39.9-42.27,85.58-66.94,137.03c-2.63,6.3-3.94,11.42-3.94,15.36c0,4.47,1.58,6.7,4.73,6.7c3.41,0,8.4-2.76,14.96-8.27
			c6.56-5.51,15.09-13.39,25.59-23.63c2.62-2.62,6.3-3.94,11.03-3.94c4.98-0.26,7.48,1.45,7.48,5.12c0,3.15-2.23,7.35-6.69,12.6
			c-12.34,14.44-27.31,28.35-44.89,41.74c-22.58,17.07-40.82,25.59-54.73,25.59c-10.5,0-18.51-4.07-24.02-12.21
			c-4.72-7.09-7.09-16.01-7.09-26.77c0-8.4,1.44-15.88,4.33-22.45c14.96-27.82,33.08-63.92,54.34-108.28
			c2.36-5.77,3.54-10.63,3.54-14.57c0-6.3-2.63-9.45-7.88-9.45c-4.99,0-11.42,3.29-19.29,9.84c-17.59,14.96-40.16,42.13-67.73,81.51
			c-3.94,8.41-9.32,19.69-16.14,33.86l-7.88,16.54c-10.24,18.86-19.3,31-27.17,36.43c-12.08,8.53-26.38,12.79-42.92,12.79
			c-9.98,0-14.96-3.54-14.96-10.63c0-5.77,4.07-17.19,12.21-34.26c4.46-9.45,9.97-20.34,16.54-32.68l8.27-16.93
			c36.75-73.24,58.54-117.99,65.37-134.27c2.36-5.51,3.54-10.63,3.54-15.36c0-13.64-6.69-20.48-20.08-20.48
			c-3.68,0-7.35,0.79-11.02,2.36c-7.35,4.73-13.84,7.21-26.8,19.75s-35.36,27.65-44.07,45.63c-7.53,15.55-20.32-4.07-20.32-4.07
			s47.59-55.16,62.03-67.99C221.18,291.91,236.3,282.66,236.3,282.66z"/>
	</g>
	<g>
		<path class="st0" d="M230.53,605.32h9.58c1.49,0,2.91,0.14,4.26,0.43c1.35,0.29,2.55,0.78,3.6,1.46c1.05,0.68,1.88,1.6,2.51,2.74
			c0.62,1.14,0.93,2.55,0.93,4.22c0,1.76-0.33,3.22-1,4.38c-0.67,1.16-1.53,2.07-2.58,2.74c-1.05,0.67-2.2,1.14-3.44,1.41
			c-1.25,0.27-2.43,0.41-3.56,0.41h-6.48v14.5h-3.83V605.32z M234.36,619.55h6.48c1.92,0,3.47-0.43,4.67-1.3
			c1.2-0.87,1.8-2.21,1.8-4.04c0-1.82-0.6-3.17-1.8-4.04c-1.2-0.87-2.76-1.3-4.67-1.3h-6.48V619.55z"/>
		<path class="st0" d="M303.18,605.32h8.26c1.55,0,3.09,0.09,4.63,0.27c1.54,0.18,2.91,0.58,4.13,1.19c1.22,0.61,2.2,1.5,2.96,2.67
			c0.76,1.17,1.14,2.76,1.14,4.77c0,2.37-0.72,4.29-2.14,5.75c-1.43,1.46-3.41,2.39-5.93,2.78l9.17,14.87h-4.7l-8.76-14.5h-4.92
			v14.5h-3.83V605.32z M307.01,619.55h3.42c1.06,0,2.17-0.03,3.31-0.09c1.14-0.06,2.19-0.26,3.15-0.59
			c0.96-0.33,1.75-0.86,2.37-1.57c0.62-0.71,0.94-1.74,0.94-3.08c0-1.16-0.23-2.08-0.68-2.78c-0.46-0.7-1.06-1.24-1.8-1.62
			c-0.75-0.38-1.58-0.63-2.51-0.75c-0.93-0.12-1.86-0.18-2.8-0.18h-5.38V619.55z"/>
		<path class="st0" d="M376.65,605.32h20.29v3.56h-16.46V619h15.37v3.56h-15.37v11.49h17.28v3.56h-21.12V605.32z"/>
		<path class="st0" d="M471.92,611.98c-0.97-1.31-2.17-2.29-3.6-2.94c-1.43-0.65-2.92-0.98-4.47-0.98c-1.79,0-3.44,0.36-4.95,1.09
			c-1.5,0.73-2.8,1.71-3.9,2.94c-1.09,1.23-1.95,2.66-2.55,4.29c-0.61,1.63-0.91,3.32-0.91,5.08c0,1.89,0.3,3.64,0.91,5.27
			s1.45,3.04,2.53,4.24c1.08,1.2,2.37,2.15,3.88,2.85c1.51,0.7,3.17,1.05,4.99,1.05c1.98,0,3.74-0.39,5.29-1.16s2.9-1.89,4.06-3.35
			l2.87,2.42c-1.46,1.95-3.22,3.38-5.27,4.29c-2.05,0.91-4.37,1.37-6.96,1.37c-2.31,0-4.47-0.43-6.48-1.28
			c-2.01-0.85-3.75-2.03-5.22-3.53c-1.48-1.5-2.63-3.29-3.47-5.36c-0.84-2.07-1.25-4.33-1.25-6.8c0-2.37,0.4-4.59,1.21-6.66
			c0.8-2.07,1.94-3.86,3.4-5.38c1.46-1.52,3.19-2.72,5.2-3.6s4.21-1.32,6.61-1.32c2.19,0,4.29,0.4,6.32,1.19
			c2.02,0.79,3.72,2.08,5.09,3.88L471.92,611.98z"/>
		<path class="st0" d="M527.01,605.32h3.83v32.29h-3.83V605.32z"/>
		<path class="st0" d="M599.48,638.43c-2.46,0-4.72-0.43-6.77-1.28c-2.05-0.85-3.83-2.03-5.34-3.53s-2.68-3.3-3.51-5.38
			c-0.84-2.08-1.25-4.34-1.25-6.77c0-2.43,0.42-4.69,1.25-6.77c0.84-2.08,2.01-3.88,3.51-5.38c1.5-1.5,3.28-2.68,5.34-3.53
			c2.05-0.85,4.31-1.28,6.77-1.28c2.46,0,4.72,0.43,6.77,1.28c2.05,0.85,3.83,2.03,5.34,3.53c1.5,1.5,2.68,3.3,3.51,5.38
			s1.25,4.34,1.25,6.77c0,2.43-0.42,4.69-1.25,6.77c-0.84,2.08-2.01,3.88-3.51,5.38c-1.5,1.5-3.28,2.68-5.34,3.53
			C604.2,638,601.94,638.43,599.48,638.43z M599.48,634.87c1.88,0,3.61-0.35,5.18-1.05c1.57-0.7,2.91-1.66,4.04-2.87
			c1.12-1.22,2-2.64,2.62-4.26c0.62-1.63,0.93-3.37,0.93-5.22c0-1.85-0.31-3.6-0.93-5.22c-0.62-1.63-1.5-3.05-2.62-4.26
			c-1.12-1.22-2.47-2.17-4.04-2.87c-1.57-0.7-3.29-1.05-5.18-1.05c-1.89,0-3.61,0.35-5.18,1.05c-1.57,0.7-2.91,1.66-4.04,2.87
			c-1.13,1.22-2,2.64-2.62,4.26c-0.62,1.63-0.93,3.37-0.93,5.22c0,1.86,0.31,3.6,0.93,5.22c0.62,1.63,1.5,3.05,2.62,4.26
			c1.12,1.22,2.47,2.17,4.04,2.87C595.87,634.52,597.59,634.87,599.48,634.87z"/>
		<path class="st0" d="M692.33,625.29c0,1.76-0.22,3.44-0.66,5.02c-0.44,1.58-1.14,2.97-2.1,4.17s-2.21,2.16-3.76,2.87
			c-1.55,0.71-3.44,1.07-5.66,1.07c-2.22,0-4.1-0.36-5.66-1.07c-1.55-0.71-2.8-1.67-3.76-2.87c-0.96-1.2-1.66-2.59-2.1-4.17
			c-0.44-1.58-0.66-3.25-0.66-5.02v-19.97h3.83v19.43c0,1.31,0.14,2.57,0.41,3.78c0.27,1.22,0.73,2.3,1.37,3.24
			c0.64,0.94,1.49,1.7,2.55,2.26c1.06,0.56,2.4,0.84,4.01,0.84c1.61,0,2.95-0.28,4.01-0.84c1.06-0.56,1.92-1.32,2.55-2.26
			c0.64-0.94,1.09-2.02,1.37-3.24c0.27-1.22,0.41-2.48,0.41-3.78v-19.43h3.83V625.29z"/>
		<path class="st0" d="M761.15,611.02c-0.64-1.03-1.49-1.79-2.55-2.26c-1.06-0.47-2.17-0.71-3.33-0.71c-0.85,0-1.69,0.11-2.51,0.32
			c-0.82,0.21-1.56,0.53-2.21,0.96c-0.65,0.43-1.18,0.99-1.57,1.69c-0.4,0.7-0.59,1.52-0.59,2.46c0,0.73,0.11,1.38,0.34,1.94
			c0.23,0.56,0.6,1.07,1.12,1.53c0.52,0.46,1.22,0.88,2.1,1.28c0.88,0.4,1.96,0.79,3.24,1.19c1.25,0.4,2.46,0.82,3.63,1.28
			c1.17,0.46,2.2,1.03,3.1,1.73c0.9,0.7,1.61,1.57,2.14,2.62c0.53,1.05,0.8,2.36,0.8,3.94c0,1.61-0.32,3.01-0.96,4.2
			c-0.64,1.19-1.48,2.17-2.53,2.94c-1.05,0.78-2.26,1.35-3.63,1.73c-1.37,0.38-2.78,0.57-4.24,0.57c-0.94,0-1.89-0.08-2.83-0.25
			c-0.94-0.17-1.85-0.43-2.71-0.78c-0.87-0.35-1.68-0.81-2.44-1.37c-0.76-0.56-1.41-1.25-1.96-2.08l3.28-2.69
			c0.7,1.19,1.67,2.08,2.92,2.69c1.25,0.61,2.57,0.91,3.97,0.91c0.82,0,1.65-0.12,2.48-0.36c0.84-0.24,1.59-0.6,2.26-1.07
			c0.67-0.47,1.22-1.06,1.64-1.76c0.42-0.7,0.64-1.51,0.64-2.42c0-1-0.17-1.82-0.5-2.44s-0.85-1.16-1.55-1.62
			c-0.7-0.46-1.58-0.87-2.64-1.23c-1.06-0.36-2.31-0.79-3.74-1.28c-1.16-0.36-2.22-0.78-3.19-1.25c-0.97-0.47-1.82-1.05-2.53-1.73
			c-0.71-0.68-1.28-1.5-1.69-2.46c-0.41-0.96-0.62-2.1-0.62-3.44c0-1.55,0.3-2.9,0.91-4.06c0.61-1.16,1.43-2.12,2.46-2.9
			c1.03-0.78,2.2-1.36,3.51-1.76c1.31-0.4,2.68-0.59,4.1-0.59c1.82,0,3.49,0.28,4.99,0.84c1.51,0.56,2.85,1.54,4.04,2.94
			L761.15,611.02z"/>
	</g>
	<g>
		<g>
			<path class="st0" d="M336.85,653.26h-2h-5.56h-1.31l-0.52,1.2l-9.24,21.19l-9.16-21.19l-0.52-1.21h-1.31h-5.7h-2v2v32.29v2h2
				h3.83h2v-2v-17.54l7.84,18.33l0.52,1.21h1.32h2.33h1.32l0.52-1.21l7.84-18.33v17.54v2h2h3.83h2v-2v-32.29V653.26L336.85,653.26z"
				/>
		</g>
		<g>
			<path class="st0" d="M410.78,653.26h-2h-20.29h-2v2v32.29v2h2h21.12h2v-2v-3.56v-2h-2h-15.28v-7.49h13.37h2v-2v-3.56v-2h-2
				h-13.37v-6.12h14.46h2v-2v-3.56V653.26L410.78,653.26z"/>
		</g>
		<g>
			<path class="st0" d="M484.8,653.26h-2h-25.17h-2v2v3.56v2h2h8.67v26.73v2h2h3.83h2v-2v-26.73h8.67h2v-2v-3.56V653.26
				L484.8,653.26z"/>
		</g>
		<path class="st0" d="M558.38,686.76l-13.73-32.29l-0.52-1.22h-1.32h-3.6h-1.3l-0.53,1.19l-14.23,32.29l-1.24,2.81h3.07h4.33h1.33
			l0.51-1.23l2.81-6.71h13.48l2.77,6.7l0.51,1.24h1.34h4.47h3.02L558.38,686.76z M534.15,676.05l6.7-15.87h0.09l6.38,15.87H534.15z"
			/>
		<g>
			<path class="st0" d="M612.27,653.26h-2h-3.83h-2v2v32.29v2h2h18.61h2v-2v-3.56v-2h-2h-12.78v-26.73V653.26L612.27,653.26z"/>
		</g>
		<g>
			<path class="st0" d="M690.17,660.96c-0.64-1.03-1.49-1.79-2.55-2.26c-1.06-0.47-2.17-0.71-3.33-0.71c-0.85,0-1.69,0.11-2.51,0.32
				c-0.82,0.21-1.56,0.53-2.21,0.96c-0.65,0.43-1.18,0.99-1.57,1.69c-0.4,0.7-0.59,1.52-0.59,2.46c0,0.73,0.11,1.38,0.34,1.94
				c0.23,0.56,0.6,1.07,1.12,1.53c0.52,0.46,1.22,0.88,2.1,1.28c0.88,0.4,1.96,0.79,3.24,1.19c1.25,0.4,2.46,0.82,3.63,1.28
				c1.17,0.46,2.2,1.03,3.1,1.73c0.9,0.7,1.61,1.57,2.14,2.62c0.53,1.05,0.8,2.36,0.8,3.94c0,1.61-0.32,3.01-0.96,4.2
				c-0.64,1.19-1.48,2.17-2.53,2.94c-1.05,0.78-2.26,1.35-3.63,1.73c-1.37,0.38-2.78,0.57-4.24,0.57c-0.94,0-1.89-0.08-2.83-0.25
				c-0.94-0.17-1.85-0.43-2.71-0.78c-0.87-0.35-1.68-0.81-2.44-1.37c-0.76-0.56-1.41-1.25-1.96-2.08l3.28-2.69
				c0.7,1.19,1.67,2.08,2.92,2.69c1.25,0.61,2.57,0.91,3.97,0.91c0.82,0,1.65-0.12,2.48-0.36c0.84-0.24,1.59-0.6,2.26-1.07
				c0.67-0.47,1.22-1.06,1.64-1.76c0.42-0.7,0.64-1.51,0.64-2.42c0-1-0.17-1.82-0.5-2.44c-0.33-0.62-0.85-1.16-1.55-1.62
				c-0.7-0.46-1.58-0.87-2.64-1.23c-1.06-0.36-2.31-0.79-3.74-1.28c-1.16-0.36-2.22-0.78-3.19-1.25c-0.97-0.47-1.82-1.05-2.53-1.73
				c-0.71-0.68-1.28-1.5-1.69-2.46c-0.41-0.96-0.62-2.1-0.62-3.44c0-1.55,0.3-2.9,0.91-4.06c0.61-1.16,1.43-2.12,2.46-2.9
				c1.03-0.78,2.2-1.36,3.51-1.76c1.31-0.4,2.68-0.59,4.1-0.59c1.82,0,3.49,0.28,4.99,0.84c1.51,0.56,2.85,1.54,4.04,2.94
				L690.17,660.96z"/>
			<path class="st0" d="M684.29,652.43c-1.62,0-3.19,0.23-4.68,0.68c-1.53,0.46-2.92,1.16-4.13,2.07c-1.27,0.95-2.29,2.15-3.03,3.56
				c-0.76,1.44-1.14,3.12-1.14,4.99c0,1.6,0.26,3.03,0.78,4.23c0.51,1.2,1.24,2.25,2.14,3.12c0.86,0.82,1.88,1.53,3.04,2.09
				c1.06,0.51,2.22,0.97,3.46,1.36c1.38,0.47,2.63,0.9,3.69,1.26c0.9,0.31,1.64,0.65,2.2,1.02c0.41,0.27,0.71,0.57,0.88,0.89
				c0.12,0.23,0.26,0.67,0.26,1.49c0,0.54-0.11,0.99-0.35,1.38c-0.28,0.47-0.64,0.85-1.08,1.16c-0.49,0.35-1.04,0.61-1.67,0.79
				c-0.65,0.19-1.3,0.29-1.93,0.29c-1.1,0-2.11-0.23-3.09-0.71c-0.89-0.44-1.57-1.06-2.07-1.91l-1.19-2.01l-1.8,1.48l-3.28,2.69
				l-1.4,1.15l1,1.51c0.67,1.01,1.49,1.88,2.44,2.58c0.89,0.66,1.86,1.2,2.88,1.61c0.99,0.4,2.04,0.7,3.11,0.89
				c1.06,0.19,2.13,0.28,3.18,0.28c1.63,0,3.24-0.22,4.78-0.64c1.6-0.44,3.04-1.13,4.28-2.05c1.28-0.95,2.33-2.16,3.1-3.6
				c0.79-1.47,1.2-3.2,1.2-5.14c0-1.89-0.34-3.52-1.01-4.85c-0.67-1.31-1.57-2.42-2.7-3.3c-1.05-0.82-2.26-1.5-3.6-2.02
				c-1.2-0.47-2.46-0.91-3.75-1.32c-1.2-0.37-2.21-0.74-3.02-1.1c-0.69-0.31-1.23-0.63-1.59-0.95c-0.28-0.25-0.48-0.51-0.59-0.78
				c-0.13-0.32-0.2-0.72-0.2-1.19c0-0.6,0.11-1.08,0.33-1.48c0.24-0.42,0.54-0.74,0.92-0.99c0.47-0.31,1.02-0.54,1.62-0.7
				c0.65-0.17,1.33-0.26,2.01-0.26c0.88,0,1.7,0.18,2.52,0.54c0.69,0.31,1.24,0.79,1.66,1.48l1.24,2l1.78-1.54l3.15-2.74l1.49-1.3
				l-1.28-1.51c-1.4-1.66-3.04-2.84-4.86-3.52C688.25,652.76,686.34,652.43,684.29,652.43L684.29,652.43z"/>
		</g>
	</g>
</g>
<g>
	<g>
		<g>
			<path class="st0" d="M-853.8,104.59c-212.34,0-384.48,172.14-384.48,384.48s172.14,384.48,384.48,384.48
				c212.34,0,384.48-172.14,384.48-384.48S-641.46,104.59-853.8,104.59z M-853.8,842.46c-195.17,0-353.39-158.22-353.39-353.39
				c0-195.17,158.22-353.39,353.39-353.39c195.17,0,353.39,158.22,353.39,353.39C-500.41,684.25-658.63,842.46-853.8,842.46z"/>
		</g>
	</g>
	<g>
		<g>
			<path class="st0" d="M-915.71,471.82c10.11-13.17,34.03-32.29,47.98-38.63c7.79-3.68,15.38-5.52,22.76-5.52
				c13.94,0,23.27,7.05,27.99,21.15c1.02,3.07,1.54,6.65,1.54,10.73c0,13.69-5.13,30.65-15.38,50.88c2.46,1.43,3.69,4.3,3.69,8.58
				c6.97-1.64,11.99-7.58,11.99-7.58s10.77-9.74,13.84-8.72c3.28,1.23,4.92,2.87,4.92,4.92c0,2.26-1.33,5.93-4.61,9.62
				c-10.46,13.95-22.87,20.73-36.6,21.75c-4.51,0.41-8.3-0.2-11.38-1.85c-18.04,23.79-38.14,35.68-60.28,35.68
				c-10.46,0-18.76-3.38-24.91-10.15c-6.15-6.77-9.95-15.91-9.23-27.37c0.75-11.97,4.04-20.62,7.45-28.54
				C-932.52,498.86-925.82,484.99-915.71,471.82z M-888.34,541.78c1.43,0.61,2.87,0.92,4.31,0.92c6.56,0,12.4-5.84,17.53-17.53
				c-2.67-4.72-4-9.54-4-14.46c0-2.87,0.51-5.54,1.54-8c2.66-6.77,9.33-9.23,19.99-7.38c8-15.38,11.99-26.86,11.99-34.45
				c0-5.74-2.77-8.61-8.3-8.61c-8.2,0-19.28,12.82-33.22,38.44c-10.66,19.27-15.99,32.71-15.99,40.29
				C-894.49,536.35-892.44,539.94-888.34,541.78z"/>
			<path class="st0" d="M-772.69,456.28c-4.72-3.89-7.07-8.71-7.07-14.46c0-4.71,1.54-10.15,4.61-16.3
				c5.12-9.84,12.61-14.76,22.45-14.76c3.69,0,6.81,1.03,9.38,3.08c2.56,2.05,3.84,5.23,3.84,9.53c0,4.31-1.23,9.02-3.69,14.15
				c5.33,3.08,13.33,2.87,23.99-0.62c9.02-3.08,15.38-4.61,19.07-4.61c5.54,0,8.81,2.36,9.84,7.07c0.41,1.64,0.61,3.28,0.61,4.92
				c0,3.49-1.03,7.33-3.08,11.53c-2.05,4.21-4.1,8.26-6.15,12.15c-6.77,14.36-14.36,30.96-22.76,49.83c-2.46,6.77-2.46,10.87,0,12.3
				c3.48,0,6.74-2.78,11.31-6.74c4.57-3.96,8.99-8.94,16.37-16.32c2.05-2.87,4.82-4.31,8.3-4.31c2.05,0,3.48,0.61,4.3,1.85
				c1.64,1.64,2.46,3.08,2.46,4.3c0,1.44-1.84,4.41-5.54,8.92c-19.68,23.79-39.88,40.7-60.59,50.75c-5.74,2.87-11.28,4.3-16.61,4.3
				c-7.79,0-13.99-2.77-18.61-8.3c-4.61-5.54-6.61-11.27-6-17.22c1.43-12.92,11.89-31.57,31.37-55.97
				c7.58-9.43,11.38-16.81,11.38-22.14c0-5.12-4.41-7.69-13.23-7.69c-22.14,28.91-41.81,52.45-41.81,52.45s-12.63,8.75-16.32,6.29
				c-1.64-0.82-2.46-2.15-2.46-4c0-1.84,0.82-3.48,2.46-4.92c8.81-9.84,15.69-17.84,20.61-23.99
				C-785.82,476.69-778.64,466.33-772.69,456.28z"/>
			<path class="st0" d="M-625.07,544.86c-17.84,18.66-32.71,27.99-44.6,27.99c-4.31,0-8.3-1.03-11.99-3.08
				c-8.61-4.71-12.92-12.92-12.92-24.6c0-2.87,0.31-5.84,0.92-8.92c0.82-5.33,1.54-8.71,2.15-10.15c1.23-3.28,3.38-6.25,6.46-8.92
				c-5.13,5.13-8.82,7.69-11.07,7.69c-1.84,0-3.59-0.92-5.23-2.77c-1.64-1.84-2.1-1.57-2.1-3.42c0-2.66,3.84-5.68,7.68-9.83
				c3.25-3.51,9.39-10.23,19.64-23.35c11.89-15.17,23.07-27.17,33.52-35.98c15.17-12.92,29.42-19.38,42.75-19.38
				c8.4,0,15.89,2.57,22.45,7.69c12.92-23.78,27.27-49.62,43.06-77.5c1.43-2.46,2.97-5.02,4.61-7.69c1.43-1.85,3.79-2.46,7.07-1.85
				c5.74,0.82,10.66,4.41,14.76,10.76c4.72,7.18,7.07,13.02,7.07,17.53c0,5.13-9.95,28.09-29.83,68.89
				c-8.61,18.66-19.07,40.09-31.37,64.28c-1.85,2.67-2.77,5.13-2.77,7.38c0,3.69,2.15,5.54,6.46,5.54c2.46,0,4.51-0.82,6.15-2.46
				c3.48-3.89,8.2-8.41,14.15-13.53c2.87-1.64,4.61-2.46,5.23-2.46c1.43,0,3.28,0.82,5.54,2.46c1.02,0.82,1.54,1.85,1.54,3.08
				c0,3.49-6.97,12.82-20.91,27.99C-565.3,560.75-584.16,571-603.23,571C-614.31,571-621.59,562.29-625.07,544.86z M-633.37,528.56
				c6.56,0,16.3-9.74,29.22-29.22c10.04-15.17,15.07-26.55,15.07-34.14c0-4.71-2.05-7.07-6.15-7.07c-5.74,0-16.1,10.56-31.06,31.68
				c-9.02,12.71-13.53,22.86-13.53,30.45C-639.83,525.79-637.68,528.56-633.37,528.56z"/>
			<path class="st0" d="M-1115.19,279.1c13.12-9.19,28.48-13.52,46.07-12.99c31.23,0.79,46.86,19.43,46.86,55.91
				c0,9.98-1.18,18.51-3.54,25.59c-2.1,5.78-9.32,22.45-21.66,50.01c21.79-24.41,42.92-44.1,63.4-59.06
				c21.52-15.22,38.98-22.84,52.37-22.84c21.52,0,32.29,9.19,32.29,27.56c0,6.83-1.57,13.92-4.72,21.26
				c-19.95,39.9-42.27,85.58-66.94,137.03c-2.63,6.3-3.94,11.42-3.94,15.36c0,4.47,1.58,6.7,4.73,6.7c3.41,0,8.4-2.76,14.96-8.27
				c6.56-5.51,15.09-13.39,25.59-23.63c2.62-2.62,6.3-3.94,11.03-3.94c4.98-0.26,7.48,1.45,7.48,5.12c0,3.15-2.23,7.35-6.69,12.6
				c-12.34,14.44-27.31,28.35-44.89,41.74c-22.58,17.07-40.82,25.59-54.73,25.59c-10.5,0-18.51-4.07-24.02-12.21
				c-4.72-7.09-7.09-16.01-7.09-26.77c0-8.4,1.44-15.88,4.33-22.45c14.96-27.82,33.08-63.92,54.34-108.28
				c2.36-5.77,3.54-10.63,3.54-14.57c0-6.3-2.63-9.45-7.88-9.45c-4.99,0-11.42,3.29-19.29,9.84
				c-17.59,14.96-40.16,42.13-67.73,81.51c-3.94,8.41-9.32,19.69-16.14,33.86l-7.88,16.54c-10.24,18.86-19.3,31-27.17,36.43
				c-12.08,8.53-26.38,12.79-42.92,12.79c-9.98,0-14.96-3.54-14.96-10.63c0-5.77,4.07-17.19,12.21-34.26
				c4.46-9.45,9.97-20.34,16.54-32.68l8.27-16.93c36.75-73.24,58.54-117.99,65.37-134.27c2.36-5.51,3.54-10.63,3.54-15.36
				c0-13.64-6.69-20.48-20.08-20.48c-3.68,0-7.35,0.79-11.02,2.36c-7.35,4.73-13.84,7.21-26.8,19.75s-35.36,27.65-44.07,45.63
				c-7.53,15.55-20.32-4.07-20.32-4.07s47.59-55.16,62.03-67.99C-1130.3,288.35-1115.19,279.1-1115.19,279.1z"/>
		</g>
		<g>
			<g>
				<path class="st0" d="M-1120.96,601.76h9.58c1.49,0,2.91,0.14,4.26,0.43c1.35,0.29,2.55,0.78,3.6,1.46
					c1.05,0.68,1.88,1.6,2.51,2.74c0.62,1.14,0.93,2.55,0.93,4.22c0,1.76-0.33,3.22-1,4.38c-0.67,1.16-1.53,2.07-2.58,2.74
					c-1.05,0.67-2.2,1.14-3.44,1.41c-1.25,0.27-2.43,0.41-3.56,0.41h-6.48v14.5h-3.83V601.76z M-1117.12,615.99h6.48
					c1.92,0,3.47-0.43,4.67-1.3c1.2-0.87,1.8-2.21,1.8-4.04c0-1.82-0.6-3.17-1.8-4.04c-1.2-0.87-2.76-1.3-4.67-1.3h-6.48V615.99z"/>
				<path class="st0" d="M-1048.31,601.76h8.26c1.55,0,3.09,0.09,4.63,0.27c1.54,0.18,2.91,0.58,4.13,1.19
					c1.22,0.61,2.2,1.5,2.96,2.67c0.76,1.17,1.14,2.76,1.14,4.77c0,2.37-0.72,4.29-2.14,5.75c-1.43,1.46-3.41,2.39-5.93,2.78
					l9.17,14.87h-4.7l-8.76-14.5h-4.92v14.5h-3.83V601.76z M-1044.47,615.99h3.42c1.06,0,2.17-0.03,3.31-0.09
					c1.14-0.06,2.19-0.26,3.15-0.59c0.96-0.33,1.75-0.86,2.37-1.57c0.62-0.71,0.94-1.74,0.94-3.08c0-1.16-0.23-2.08-0.68-2.78
					c-0.46-0.7-1.06-1.24-1.8-1.62c-0.75-0.38-1.58-0.63-2.51-0.75c-0.93-0.12-1.86-0.18-2.8-0.18h-5.38V615.99z"/>
				<path class="st0" d="M-974.84,601.76h20.29v3.56H-971v10.12h15.37V619H-971v11.49h17.28v3.56h-21.12V601.76z"/>
				<path class="st0" d="M-879.57,608.41c-0.97-1.31-2.17-2.29-3.6-2.94c-1.43-0.65-2.92-0.98-4.47-0.98
					c-1.79,0-3.44,0.36-4.95,1.09c-1.5,0.73-2.8,1.71-3.9,2.94c-1.09,1.23-1.95,2.66-2.55,4.29c-0.61,1.63-0.91,3.32-0.91,5.08
					c0,1.89,0.3,3.64,0.91,5.27c0.61,1.63,1.45,3.04,2.53,4.24c1.08,1.2,2.37,2.15,3.88,2.85c1.51,0.7,3.17,1.05,4.99,1.05
					c1.98,0,3.74-0.39,5.29-1.16c1.55-0.78,2.9-1.89,4.06-3.35l2.87,2.42c-1.46,1.95-3.22,3.38-5.27,4.29
					c-2.05,0.91-4.37,1.37-6.96,1.37c-2.31,0-4.47-0.43-6.48-1.28c-2.01-0.85-3.75-2.03-5.22-3.53c-1.48-1.5-2.63-3.29-3.47-5.36
					c-0.84-2.07-1.25-4.33-1.25-6.8c0-2.37,0.4-4.59,1.21-6.66c0.8-2.07,1.94-3.86,3.4-5.38c1.46-1.52,3.19-2.72,5.2-3.6
					c2.01-0.88,4.21-1.32,6.61-1.32c2.19,0,4.29,0.4,6.32,1.19c2.02,0.79,3.72,2.08,5.09,3.88L-879.57,608.41z"/>
				<path class="st0" d="M-824.47,601.76h3.83v32.29h-3.83V601.76z"/>
				<path class="st0" d="M-752.01,634.87c-2.46,0-4.72-0.43-6.77-1.28c-2.05-0.85-3.83-2.03-5.34-3.53c-1.5-1.5-2.68-3.3-3.51-5.38
					c-0.84-2.08-1.25-4.34-1.25-6.77c0-2.43,0.42-4.69,1.25-6.77c0.84-2.08,2.01-3.88,3.51-5.38c1.5-1.5,3.28-2.68,5.34-3.53
					c2.05-0.85,4.31-1.28,6.77-1.28c2.46,0,4.72,0.43,6.77,1.28c2.05,0.85,3.83,2.03,5.34,3.53c1.5,1.5,2.68,3.3,3.51,5.38
					s1.25,4.34,1.25,6.77c0,2.43-0.42,4.69-1.25,6.77c-0.84,2.08-2.01,3.88-3.51,5.38c-1.5,1.5-3.28,2.68-5.34,3.53
					C-747.29,634.44-749.54,634.87-752.01,634.87z M-752.01,631.31c1.88,0,3.61-0.35,5.18-1.05c1.57-0.7,2.91-1.66,4.04-2.87
					c1.12-1.22,2-2.64,2.62-4.26c0.62-1.63,0.93-3.37,0.93-5.22c0-1.85-0.31-3.6-0.93-5.22c-0.62-1.63-1.5-3.05-2.62-4.26
					c-1.12-1.22-2.47-2.17-4.04-2.87c-1.57-0.7-3.29-1.05-5.18-1.05c-1.89,0-3.61,0.35-5.18,1.05c-1.57,0.7-2.91,1.66-4.04,2.87
					c-1.13,1.22-2,2.64-2.62,4.26c-0.62,1.63-0.93,3.37-0.93,5.22c0,1.86,0.31,3.6,0.93,5.22c0.62,1.63,1.5,3.05,2.62,4.26
					c1.12,1.22,2.47,2.17,4.04,2.87C-755.62,630.96-753.89,631.31-752.01,631.31z"/>
				<path class="st0" d="M-659.15,621.73c0,1.76-0.22,3.44-0.66,5.02c-0.44,1.58-1.14,2.97-2.1,4.17s-2.21,2.16-3.76,2.87
					c-1.55,0.71-3.44,1.07-5.66,1.07c-2.22,0-4.1-0.36-5.66-1.07c-1.55-0.71-2.8-1.67-3.76-2.87c-0.96-1.2-1.66-2.59-2.1-4.17
					c-0.44-1.58-0.66-3.25-0.66-5.02v-19.97h3.83v19.43c0,1.31,0.14,2.57,0.41,3.78c0.27,1.22,0.73,2.3,1.37,3.24
					c0.64,0.94,1.49,1.7,2.55,2.26c1.06,0.56,2.4,0.84,4.01,0.84c1.61,0,2.95-0.28,4.01-0.84c1.06-0.56,1.92-1.32,2.55-2.26
					c0.64-0.94,1.09-2.02,1.37-3.24c0.27-1.22,0.41-2.48,0.41-3.78v-19.43h3.83V621.73z"/>
				<path class="st0" d="M-590.33,607.46c-0.64-1.03-1.49-1.79-2.55-2.26c-1.06-0.47-2.17-0.71-3.33-0.71
					c-0.85,0-1.69,0.11-2.51,0.32c-0.82,0.21-1.56,0.53-2.21,0.96c-0.65,0.43-1.18,0.99-1.57,1.69c-0.4,0.7-0.59,1.52-0.59,2.46
					c0,0.73,0.11,1.38,0.34,1.94c0.23,0.56,0.6,1.07,1.12,1.53c0.52,0.46,1.22,0.88,2.1,1.28c0.88,0.4,1.96,0.79,3.24,1.19
					c1.25,0.4,2.46,0.82,3.63,1.28c1.17,0.46,2.2,1.03,3.1,1.73c0.9,0.7,1.61,1.57,2.14,2.62c0.53,1.05,0.8,2.36,0.8,3.94
					c0,1.61-0.32,3.01-0.96,4.2c-0.64,1.19-1.48,2.17-2.53,2.94c-1.05,0.78-2.26,1.35-3.63,1.73c-1.37,0.38-2.78,0.57-4.24,0.57
					c-0.94,0-1.89-0.08-2.83-0.25c-0.94-0.17-1.85-0.43-2.71-0.78c-0.87-0.35-1.68-0.81-2.44-1.37c-0.76-0.56-1.41-1.25-1.96-2.08
					l3.28-2.69c0.7,1.19,1.67,2.08,2.92,2.69c1.25,0.61,2.57,0.91,3.97,0.91c0.82,0,1.65-0.12,2.48-0.36
					c0.84-0.24,1.59-0.6,2.26-1.07c0.67-0.47,1.22-1.06,1.64-1.76c0.42-0.7,0.64-1.51,0.64-2.42c0-1-0.17-1.82-0.5-2.44
					s-0.85-1.16-1.55-1.62c-0.7-0.46-1.58-0.87-2.64-1.23c-1.06-0.36-2.31-0.79-3.74-1.28c-1.16-0.36-2.22-0.78-3.19-1.25
					c-0.97-0.47-1.82-1.05-2.53-1.73c-0.71-0.68-1.28-1.5-1.69-2.46c-0.41-0.96-0.62-2.1-0.62-3.44c0-1.55,0.3-2.9,0.91-4.06
					c0.61-1.16,1.43-2.12,2.46-2.9c1.03-0.78,2.2-1.36,3.51-1.76c1.31-0.4,2.68-0.59,4.1-0.59c1.82,0,3.49,0.28,4.99,0.84
					c1.51,0.56,2.85,1.54,4.04,2.94L-590.33,607.46z"/>
			</g>
			<g>
				<g>
					<polygon class="st1" points="-1021.46,684.98 -1021.46,661.56 -1031.48,684.98 -1035.12,684.98 -1045.14,661.56 
						-1045.14,684.98 -1050.97,684.98 -1050.97,650.69 -1043.61,650.69 -1033.27,674.6 -1022.85,650.69 -1015.63,650.69 
						-1015.63,684.98 					"/>
					<path class="st1" d="M-1016.63,651.69v32.29h-3.83v-27.09h-0.09l-11.58,27.09h-2.33l-11.58-27.09h-0.09v27.09h-3.83v-32.29h5.7
						l10.95,25.31h0.09l11.04-25.31H-1016.63 M-1014.63,649.69h-2h-5.56h-1.31l-0.52,1.2l-9.24,21.19l-9.16-21.19l-0.52-1.21h-1.31
						h-5.7h-2v2v32.29v2h2h3.83h2v-2v-17.54l7.84,18.32l0.52,1.21h1.32h2.33h1.32l0.52-1.21l7.84-18.33v17.54v2h2h3.83h2v-2v-32.29
						V649.69L-1014.63,649.69z"/>
				</g>
				<g>
					<polygon class="st1" points="-964,684.98 -964,650.69 -941.71,650.69 -941.71,656.25 -958.17,656.25 -958.17,664.38 
						-942.8,664.38 -942.8,669.93 -958.17,669.93 -958.17,679.43 -940.88,679.43 -940.88,684.98 					"/>
					<path class="st1" d="M-942.71,651.69v3.56h-16.46v10.12h15.37v3.56h-15.37v11.49h17.28v3.56H-963v-32.29H-942.71
						 M-940.71,649.69h-2H-963h-2v2v32.29v2h2h21.12h2v-2v-3.56v-2h-2h-15.28v-7.49h13.37h2v-2v-3.56v-2h-2h-13.37v-6.12h14.46h2v-2
						v-3.56V649.69L-940.71,649.69z"/>
				</g>
				<g>
					<polygon class="st1" points="-884.19,684.98 -884.19,656.25 -894.86,656.25 -894.86,650.69 -867.69,650.69 -867.69,656.25 
						-878.36,656.25 -878.36,684.98 					"/>
					<path class="st1" d="M-868.69,651.69v3.56h-10.67v28.73h-3.83v-28.73h-10.67v-3.56H-868.69 M-866.69,649.69h-2h-25.17h-2v2
						v3.56v2h2h8.67v26.73v2h2h3.83h2v-2v-26.73h8.67h2v-2v-3.56V649.69L-866.69,649.69z"/>
				</g>
				<g>
					<path class="st1" d="M-800.08,684.98l-3.28-7.94h-14.81l-3.33,7.94h-6.53l15.11-34.29h4.92l14.58,34.29H-800.08z
						 M-805.64,671.49l-4.97-12.36l-5.22,12.36H-805.64z"/>
					<path class="st1" d="M-808.67,651.69l13.73,32.29h-4.47l-3.28-7.94h-16.14l-3.33,7.94h-4.33l14.23-32.29H-808.67
						 M-817.34,672.49h13.18l-6.38-15.87h-0.09L-817.34,672.49 M-807.35,649.69h-1.32h-3.6h-1.3l-0.53,1.19l-14.23,32.29l-1.24,2.81
						h3.07h4.33h1.33l0.51-1.23l2.81-6.71h13.48l2.77,6.7l0.51,1.24h1.34h4.47h3.02l-1.18-2.78l-13.73-32.29L-807.35,649.69
						L-807.35,649.69z M-814.32,670.49l3.69-8.73l3.51,8.73H-814.32L-814.32,670.49z"/>
				</g>
				<g>
					<polygon class="st1" points="-746.05,684.98 -746.05,650.69 -740.22,650.69 -740.22,679.43 -725.44,679.43 -725.44,684.98 
											"/>
					<path class="st1" d="M-741.22,651.69v28.73h14.78v3.56h-18.61v-32.29H-741.22 M-739.22,649.69h-2h-3.83h-2v2v32.29v2h2h18.61h2
						v-2v-3.56v-2h-2h-12.78v-26.73V649.69L-739.22,649.69z"/>
				</g>
				<g>
					<path class="st1" d="M-668.98,685.8c-0.99,0-2-0.09-3-0.27c-1-0.18-1.98-0.46-2.91-0.83c-0.94-0.38-1.84-0.88-2.66-1.49
						c-0.85-0.63-1.59-1.41-2.2-2.32l-0.5-0.75l4.89-4l0.59,1c0.6,1.02,1.42,1.78,2.5,2.3c1.1,0.54,2.29,0.81,3.53,0.81
						c0.72,0,1.46-0.11,2.2-0.32c0.73-0.21,1.39-0.52,1.96-0.93c0.55-0.39,1.01-0.88,1.36-1.46c0.33-0.55,0.49-1.17,0.49-1.9
						c0-0.83-0.13-1.49-0.38-1.97c-0.25-0.47-0.66-0.89-1.22-1.25c-0.63-0.41-1.44-0.79-2.42-1.12l-3.74-1.28
						c-1.17-0.37-2.29-0.81-3.31-1.3c-1.06-0.52-2-1.16-2.79-1.91c-0.81-0.78-1.46-1.72-1.92-2.79c-0.46-1.08-0.7-2.37-0.7-3.84
						c0-1.71,0.35-3.23,1.03-4.52c0.68-1.28,1.6-2.37,2.75-3.23c1.12-0.84,2.41-1.48,3.82-1.91c1.39-0.42,2.87-0.64,4.39-0.64
						c1.93,0,3.73,0.31,5.34,0.91c1.66,0.62,3.16,1.71,4.45,3.23l0.64,0.75l-4.78,4.16l-0.62-1c-0.53-0.86-1.22-1.48-2.11-1.87
						c-0.93-0.41-1.92-0.62-2.92-0.62c-0.76,0-1.52,0.1-2.26,0.29c-0.71,0.19-1.36,0.46-1.92,0.83c-0.52,0.34-0.93,0.78-1.25,1.34
						c-0.31,0.54-0.46,1.21-0.46,1.97c0,0.6,0.09,1.12,0.27,1.56c0.17,0.42,0.45,0.8,0.85,1.15c0.44,0.39,1.06,0.76,1.85,1.11
						c0.85,0.38,1.9,0.76,3.12,1.14c1.27,0.4,2.51,0.84,3.69,1.3c1.25,0.49,2.38,1.12,3.35,1.88c1.01,0.79,1.82,1.78,2.42,2.96
						c0.6,1.19,0.91,2.67,0.91,4.4c0,1.77-0.36,3.34-1.08,4.67c-0.71,1.31-1.65,2.41-2.82,3.27c-1.15,0.85-2.48,1.48-3.95,1.89
						C-665.92,685.6-667.44,685.8-668.98,685.8z"/>
					<path class="st1" d="M-667.2,650.87c1.82,0,3.49,0.28,4.99,0.84c1.51,0.56,2.85,1.54,4.04,2.94l-3.15,2.74
						c-0.64-1.03-1.49-1.79-2.55-2.26c-1.06-0.47-2.17-0.71-3.33-0.71c-0.85,0-1.69,0.11-2.51,0.32c-0.82,0.21-1.56,0.53-2.21,0.96
						c-0.65,0.43-1.18,0.99-1.57,1.69c-0.4,0.7-0.59,1.52-0.59,2.46c0,0.73,0.11,1.38,0.34,1.94c0.23,0.56,0.6,1.07,1.12,1.53
						c0.52,0.46,1.22,0.88,2.1,1.28c0.88,0.4,1.96,0.79,3.24,1.19c1.25,0.4,2.46,0.82,3.63,1.28c1.17,0.46,2.2,1.03,3.1,1.73
						c0.9,0.7,1.61,1.57,2.14,2.62c0.53,1.05,0.8,2.36,0.8,3.94c0,1.61-0.32,3.01-0.96,4.2c-0.64,1.19-1.48,2.17-2.53,2.94
						c-1.05,0.77-2.26,1.35-3.63,1.73c-1.37,0.38-2.78,0.57-4.24,0.57c-0.94,0-1.89-0.08-2.83-0.25c-0.94-0.17-1.85-0.43-2.71-0.78
						c-0.87-0.35-1.68-0.81-2.44-1.37c-0.76-0.56-1.41-1.25-1.96-2.08l3.28-2.69c0.7,1.19,1.67,2.08,2.92,2.69
						c1.25,0.61,2.57,0.91,3.97,0.91c0.82,0,1.65-0.12,2.48-0.36c0.84-0.24,1.59-0.6,2.26-1.07c0.67-0.47,1.22-1.06,1.64-1.76
						c0.42-0.7,0.64-1.51,0.64-2.42c0-1-0.17-1.82-0.5-2.44c-0.33-0.62-0.85-1.16-1.55-1.62c-0.7-0.46-1.58-0.87-2.64-1.23
						c-1.06-0.36-2.31-0.79-3.74-1.28c-1.16-0.36-2.22-0.78-3.19-1.25c-0.97-0.47-1.82-1.05-2.53-1.73
						c-0.71-0.68-1.28-1.5-1.69-2.46c-0.41-0.96-0.62-2.1-0.62-3.44c0-1.55,0.3-2.9,0.91-4.06c0.61-1.16,1.43-2.12,2.46-2.9
						c1.03-0.77,2.2-1.36,3.51-1.75C-670,651.07-668.63,650.87-667.2,650.87 M-667.2,648.87c-1.62,0-3.2,0.23-4.68,0.68
						c-1.53,0.46-2.92,1.16-4.13,2.07c-1.27,0.95-2.29,2.15-3.03,3.57c-0.76,1.44-1.14,3.12-1.14,4.99c0,1.6,0.26,3.03,0.78,4.23
						c0.52,1.2,1.24,2.25,2.14,3.12c0.86,0.82,1.88,1.53,3.04,2.09c1.06,0.51,2.22,0.97,3.46,1.36c1.38,0.47,2.63,0.9,3.69,1.26
						c0.9,0.31,1.64,0.65,2.2,1.01c0.41,0.27,0.71,0.57,0.88,0.89c0.12,0.22,0.26,0.67,0.26,1.49c0,0.54-0.11,0.99-0.35,1.38
						c-0.28,0.47-0.64,0.85-1.08,1.16c-0.49,0.34-1.05,0.61-1.66,0.79c-0.65,0.19-1.3,0.29-1.93,0.29c-1.1,0-2.11-0.23-3.09-0.71
						c-0.9-0.44-1.57-1.06-2.07-1.91l-1.19-2.01l-1.81,1.48l-3.28,2.69l-1.4,1.15l1,1.51c0.67,1.01,1.49,1.88,2.44,2.58
						c0.89,0.66,1.86,1.2,2.88,1.61c1,0.4,2.04,0.7,3.11,0.89c1.06,0.19,2.12,0.28,3.18,0.28c1.63,0,3.24-0.22,4.78-0.64
						c1.6-0.44,3.04-1.13,4.28-2.05c1.28-0.95,2.33-2.16,3.1-3.6c0.79-1.47,1.2-3.2,1.2-5.14c0-1.89-0.34-3.52-1.01-4.85
						c-0.67-1.31-1.57-2.42-2.7-3.3c-1.05-0.82-2.26-1.5-3.6-2.02c-1.2-0.47-2.47-0.91-3.75-1.32c-1.21-0.37-2.22-0.74-3.02-1.1
						c-0.69-0.31-1.23-0.63-1.59-0.95c-0.28-0.25-0.48-0.51-0.59-0.78c-0.13-0.32-0.2-0.72-0.2-1.19c0-0.6,0.11-1.08,0.33-1.48
						c0.24-0.42,0.54-0.75,0.92-0.99c0.47-0.31,1.01-0.54,1.62-0.7c0.65-0.17,1.33-0.25,2-0.25c0.88,0,1.7,0.18,2.52,0.54
						c0.69,0.31,1.24,0.79,1.66,1.48l1.24,2l1.78-1.54l3.15-2.74l1.49-1.3l-1.28-1.51c-1.4-1.66-3.04-2.84-4.86-3.52
						C-663.23,649.2-665.15,648.87-667.2,648.87L-667.2,648.87z"/>
				</g>
			</g>
		</g>
	</g>
	<g>
		<g>
			<path class="st0" d="M-939.2,625.73c3.22,0,3.22-5,0-5C-942.42,620.73-942.42,625.73-939.2,625.73L-939.2,625.73z"/>
		</g>
	</g>
</g>
</svg>
