<?xml version="1.0" encoding="utf-8"?>
<!-- Generator: Adobe Illustrator 27.8.1, SVG Export Plug-In . SVG Version: 6.00 Build 0)  -->
<svg version="1.1" id="Layer_1" xmlns="http://www.w3.org/2000/svg" xmlns:xlink="http://www.w3.org/1999/xlink" x="0px" y="0px"
	 viewBox="0 0 1224 1224" style="enable-background:new 0 0 1224 1224;" xml:space="preserve">
<style type="text/css">
	.st0{fill:#E4A534;}
</style>
<g>
	<g>
		<path class="st0" d="M1015.18,618.5c-15.78,22.24-23.67,39.99-23.67,53.25c0,9.68,3.76,14.52,11.29,14.52
			c11.47,0,28.51-17.03,51.1-51.1c17.57-26.53,26.36-46.43,26.36-59.7c0-8.24-3.59-12.37-10.76-12.37
			C1059.47,563.1,1041.36,581.57,1015.18,618.5z"/>
		<path class="st0" d="M76.56,321.31c1.46-1.58,2.9-3.14,4.32-4.66c2.84-3.05,5.59-5.98,8.22-8.74c7.88-8.29,14.65-15.1,19.39-19.3
			c10.87-9.66,21.95-18.15,31.06-24.69c0.2-0.15,0.41-0.29,0.61-0.44c2.5-1.79,4.84-3.43,6.98-4.9c0.63-0.44,1.25-0.86,1.85-1.27
			c1.03-0.7,2.01-1.36,2.92-1.97c0.01,0,0.01-0.01,0.02-0.01c5.12-3.42,8.25-5.33,8.25-5.33c0.02-0.01,0.04-0.03,0.06-0.04
			c22.94-16.04,49.78-23.6,80.51-22.68c23.91,0.6,42.59,7.19,56.04,19.75c2.17,2.03,4.19,4.23,6.09,6.57
			c2.42,2.98,4.62,6.22,6.6,9.71c8.81,15.56,13.22,36.13,13.22,61.75c0,17.45-2.07,32.37-6.2,44.76c-0.44,1.2-1,2.67-1.69,4.4
			c-4.75,11.97-15.5,36.71-32.25,74.24c-1.28,2.86-2.59,5.8-3.94,8.81c26.2-29.35,51.85-54.8,76.96-76.34
			c11.41-9.79,22.72-18.78,33.91-26.96c37.64-26.62,68.17-39.94,91.59-39.94c13.04,0,23.82,1.93,32.35,5.79
			c16.08,7.28,24.12,21.42,24.12,42.41c0,6.72-0.9,13.59-2.65,20.6c-0.43,1.71-0.9,3.43-1.43,5.16c-0.59,1.94-1.24,3.88-1.96,5.84
			c-0.22,0.6-0.45,1.2-0.69,1.8c-0.49,1.26-0.99,2.52-1.53,3.79c-34.9,69.78-73.92,149.67-117.07,239.64
			c-4.59,11.02-6.89,19.97-6.89,26.86c0,7.81,2.76,11.71,8.27,11.71c5.96,0,14.69-4.82,26.17-14.46c1.84-1.55,3.78-3.21,5.79-4.97
			c1.04-0.9,2.09-1.83,3.17-2.79c0.14-0.13,0.29-0.25,0.43-0.38c9.87-8.76,21.66-19.82,35.37-33.18c0.03-0.03,0.06-0.05,0.09-0.08
			c0.52-0.52,1.07-1.01,1.64-1.46c0.6-0.48,1.22-0.92,1.87-1.34c0,0,0.01,0,0.01-0.01c5.69-10.12,12.64-21.15,20.91-31.93
			c17.69-23.04,59.52-56.47,83.91-67.55c13.62-6.43,26.89-9.65,39.8-9.65c24.38,0,40.69,12.33,48.95,36.99
			c1.79,5.36,2.69,11.62,2.69,18.77c0,23.94-8.97,53.6-26.89,88.99c4.3,2.5,6.45,7.51,6.45,15.01
			c12.19-2.87,20.98-13.26,20.98-13.26s0.65-0.59,1.74-1.53c14.84-16.59,26.46-30.14,34.84-40.61
			c14.7-18.64,27.25-36.75,37.65-54.33c-8.25-6.81-12.37-15.24-12.37-25.28c0-8.24,2.69-17.75,8.07-28.51
			c8.96-17.21,22.05-25.82,39.27-25.82c6.45,0,11.92,1.8,16.41,5.38c4.48,3.59,6.72,9.14,6.72,16.67s-2.15,15.78-6.45,24.74
			c9.32,5.38,23.31,5.02,41.96-1.08c15.77-5.38,26.89-8.07,33.35-8.07c9.68,0,15.41,4.13,17.21,12.37c0.72,2.87,1.07,5.74,1.07,8.61
			c0,6.1-1.8,12.83-5.38,20.17c-3.59,7.35-7.18,14.44-10.76,21.24c-11.83,25.11-25.11,54.15-39.8,87.14
			c-4.3,11.83-4.3,19.01,0,21.52c6.09,0,11.79-4.87,19.78-11.79c7.34-6.36,14.47-14.24,25.58-25.49
			c5.71-6.17,16.42-17.91,34.23-40.71c20.79-26.53,40.34-47.51,58.63-62.93c26.53-22.59,51.45-33.89,74.77-33.89
			c14.7,0,27.78,4.49,39.26,13.44c22.59-41.59,47.69-86.77,75.31-135.54c1.37-2.35,2.8-4.77,4.28-7.23
			C1090.09,159.35,869.61,0.07,611.93,0.07c-236.13,0-441,133.74-543.04,329.61c1.84-2.02,3.67-4.02,5.47-5.98
			C75.1,322.9,75.83,322.1,76.56,321.31z"/>
		<path class="st0" d="M1210.81,485.77c-7.62,16.58-17.07,36.43-28.35,59.58c-15.06,32.63-33.35,70.11-54.86,112.42
			c-3.23,4.66-4.84,8.97-4.84,12.91c0,6.46,3.76,9.68,11.3,9.68c4.3,0,7.88-1.43,10.76-4.3c6.09-6.81,14.34-14.7,24.74-23.67
			c5.02-2.87,8.07-4.3,9.15-4.3c2.5,0,5.73,1.44,9.68,4.3c1.79,1.44,2.69,3.23,2.69,5.38c0,6.1-12.19,22.42-36.57,48.95
			c-32.63,35.86-65.62,53.79-98.97,53.79c-19.36,0-32.1-15.24-38.19-45.72c-31.2,32.63-57.2,48.94-77.99,48.94
			c-7.53,0-14.52-1.8-20.98-5.38c-15.06-8.24-22.59-22.59-22.59-43.03c0-5.02,0.54-10.22,1.61-15.6c1.43-9.32,2.69-15.24,3.77-17.75
			c0.03-0.08,0.07-0.17,0.1-0.25c-30.53,34.16-61.76,58.99-93.69,74.48c-10.04,5.02-19.72,7.53-29.05,7.53
			c-13.63,0-24.47-4.84-32.54-14.52c-8.07-9.68-11.57-19.72-10.49-30.12c2.5-22.59,20.79-55.22,54.86-97.89
			c13.26-16.49,19.9-29.4,19.9-38.73c0-8.96-7.71-13.45-23.13-13.45c-38.73,50.56-73.11,91.73-73.11,91.73s-0.03,0.02-0.07,0.05
			c-1.14,1.86-2.54,3.79-4.26,5.72c-18.29,24.39-40,36.26-64.02,38.05c-7.89,0.72-14.52-0.35-19.9-3.23
			c-31.56,41.6-66.7,62.39-105.42,62.39c-18.29,0-32.81-5.92-43.57-17.75c-10.76-11.83-17.4-27.83-16.14-47.87
			c0.17-2.64,0.4-5.19,0.7-7.65c0,0-0.01,0.01-0.01,0.01c-1.33,1.18-2.67,2.37-4.02,3.55c-0.06,0.05-0.12,0.1-0.17,0.15
			c-3.86,3.37-7.82,6.73-11.86,10.06c-0.28,0.23-0.56,0.47-0.85,0.7c-0.96,0.79-1.93,1.58-2.9,2.37c-0.75,0.61-1.5,1.21-2.25,1.82
			c-0.82,0.65-1.63,1.31-2.46,1.96c-1.01,0.8-2.03,1.61-3.05,2.41c-0.64,0.5-1.28,1.01-1.92,1.51c-1.71,1.33-3.42,2.65-5.16,3.98
			c-17.89,13.53-34.22,23.97-49,31.37c-17.84,8.92-33.41,13.39-46.72,13.39c-18.37,0-32.36-7.12-42.01-21.35
			c-0.81-1.22-1.58-2.48-2.31-3.77c-0.91-1.59-1.76-3.23-2.55-4.92c-0.7-1.5-1.35-3.04-1.95-4.61c-3.72-9.73-5.58-20.9-5.58-33.52
			c0-3.43,0.15-6.76,0.42-10.01c0.9-10.69,3.27-20.45,7.15-29.25c6.96-12.95,14.32-26.93,22.07-41.93c1.3-2.52,2.61-5.05,3.93-7.62
			c2.85-5.55,5.75-11.23,8.7-17.05c1.4-2.76,2.81-5.56,4.24-8.38c0.99-1.97,2-3.96,3-5.96c9.04-17.98,18.53-37.15,28.47-57.51
			c1.92-3.93,3.86-7.9,5.81-11.92c2.31-4.74,4.64-9.55,6.99-14.42c3.88-8.03,7.82-16.22,11.83-24.58c0.88-2.15,1.65-4.22,2.34-6.23
			c0.27-0.79,0.53-1.56,0.77-2.32c2.04-6.43,3.09-12.09,3.09-16.93c0-4.52-0.79-8.1-2.34-10.77c-0.72-1.25-1.62-2.29-2.68-3.13
			c-2.2-1.74-5.11-2.62-8.76-2.62c-6.18,0-13.63,2.9-22.34,8.65c-3.59,2.37-7.38,5.21-11.4,8.56
			c-10.07,8.56-21.08,19.44-33.02,32.58c-1.2,1.32-2.41,2.66-3.63,4.03c-1.09,1.22-2.18,2.46-3.28,3.71
			c-22.92,26.13-49.09,60.19-78.52,102.22c-3.44,7.35-7.52,15.96-12.22,25.83c-4.71,9.87-10.04,21-16.01,33.39l-9.67,20.3
			l-4.11,8.62c-12.31,22.68-23.64,39.8-34,51.37c-2.82,3.16-5.58,5.9-8.26,8.23c-1.79,1.55-3.54,2.92-5.26,4.11
			c-21.12,14.91-46.14,22.37-75.06,22.37c-3.71,0-6.99-0.3-9.91-0.86c-1.05-0.2-2.04-0.44-2.99-0.71c-2.63-0.76-4.89-1.77-6.73-3.08
			c-0.55-0.39-1.06-0.8-1.53-1.23c-3.34-3.05-5.01-7.29-5.01-12.71c0-5.41,2.07-13.69,6.16-24.79c1.03-2.79,2.18-5.74,3.47-8.89
			c3.14-7.68,7.04-16.41,11.72-26.24c2.92-6.18,6.09-12.72,9.53-19.6c0.01-0.02,0.02-0.03,0.03-0.05c0.01-0.01,0.01-0.02,0.02-0.03
			c5.73-11.5,12.19-23.99,19.36-37.47l14.46-29.61c54.23-108.08,89.83-180.68,106.8-217.84c0.63-1.38,1.23-2.7,1.81-3.98
			c0.29-0.64,0.57-1.27,0.85-1.88c1.93-4.31,3.55-8.02,4.86-11.13c4.13-9.64,6.2-18.59,6.2-26.86c0-9.69-1.93-17.42-5.8-23.18
			c-0.3-0.44-0.61-0.87-0.93-1.29c-5.76-7.56-15.23-11.34-28.4-11.34c-6.43,0-12.86,1.38-19.28,4.14
			c-8.72,5.6-16.75,9.41-28.07,18.11c-0.3,0.23-0.61,0.47-0.92,0.71c-0.79,0.61-1.59,1.25-2.4,1.91c-0.25,0.21-0.51,0.41-0.77,0.62
			c-0.9,0.73-1.81,1.49-2.75,2.29c-3.63,3.08-7.58,6.66-11.97,10.9c-22.67,21.93-80.68,85.86-82.65,87.53
			C10.51,482.06,0,545.8,0,612c0,337.96,273.97,611.93,611.93,611.93c337.96,0,611.93-273.97,611.93-611.93
			C1223.86,568.72,1219.36,526.5,1210.81,485.77z M175.7,840.4c-1.18,2.04-2.69,3.65-4.55,4.83c-1.85,1.18-3.88,2.01-6.07,2.49
			c-2.2,0.48-4.29,0.72-6.28,0.72h-11.42v25.58h-6.76v-56.96h16.9c2.63,0,5.14,0.26,7.52,0.76c2.39,0.51,4.5,1.37,6.36,2.57
			c1.85,1.21,3.32,2.82,4.43,4.83c1.1,2.01,1.65,4.49,1.65,7.44C177.47,835.79,176.88,838.37,175.7,840.4z M268.79,817.07h14.56
			c2.74,0,5.46,0.16,8.17,0.48c2.71,0.32,5.14,1.02,7.28,2.09c2.14,1.07,3.89,2.64,5.23,4.71c1.34,2.07,2.01,4.87,2.01,8.41
			c0,4.18-1.26,7.56-3.78,10.14c-2.52,2.57-6.01,4.21-10.46,4.91l16.17,26.23h-8.29l-15.45-25.58h-8.69v25.58h-6.76V817.07z
			 M325.89,905.17v56.96v1.23h-1.23h-6.76h-1.23v-1.23v-42.18l-18.24,42.66l-0.32,0.74h-0.81h-4.1h-0.81l-0.32-0.74l-18.24-42.66
			v42.17v1.23h-1.23h-6.76h-1.23v-1.23v-56.96v-1.23h1.23h10.06h0.81l0.32,0.74l18.27,42.24l18.42-42.25l0.32-0.74h0.8h9.82h1.23
			V905.17z M398.4,817.07h35.8v6.28h-29.04v17.86h27.11v6.28h-27.11v20.28h30.49v6.28H398.4V817.07z M457.76,955.86v6.28v1.23h-1.23
			h-37.25h-1.23v-1.23v-56.96v-1.23h1.23h35.8h1.23v1.23v6.28v1.23h-1.23h-27.82v15.41h25.89h1.23v1.23v6.28v1.23h-1.23h-25.89
			v17.82h29.26h1.23V955.86z M525.48,857.54c-1.48-3.65-2.21-7.64-2.21-11.99c0-4.18,0.71-8.1,2.13-11.75
			c1.42-3.65,3.42-6.81,5.99-9.49c2.58-2.68,5.63-4.8,9.17-6.36c3.54-1.56,7.43-2.33,11.67-2.33c3.86,0,7.58,0.7,11.14,2.09
			c3.57,1.4,6.56,3.67,8.97,6.84l-5.87,4.26c-1.72-2.3-3.84-4.03-6.36-5.19c-2.52-1.15-5.15-1.73-7.88-1.73
			c-3.16,0-6.07,0.64-8.73,1.93c-2.65,1.29-4.95,3.02-6.88,5.19c-1.93,2.17-3.43,4.69-4.51,7.56c-1.07,2.87-1.61,5.86-1.61,8.97
			c0,3.33,0.53,6.42,1.61,9.29c1.07,2.87,2.56,5.36,4.47,7.48c1.9,2.12,4.18,3.8,6.84,5.03c2.66,1.23,5.59,1.85,8.81,1.85
			c3.49,0,6.6-0.68,9.33-2.05s5.12-3.34,7.16-5.91l5.07,4.26c-2.58,3.43-5.67,5.95-9.29,7.56c-3.62,1.61-7.71,2.41-12.27,2.41
			c-4.08,0-7.88-0.75-11.42-2.25c-3.54-1.5-6.61-3.58-9.21-6.23C528.99,864.34,526.95,861.19,525.48,857.54z M586.89,905.17v6.28
			v1.23h-1.23h-17.6v49.46v1.23h-1.23h-6.76h-1.23v-1.23v-49.46h-17.6h-1.23v-1.23v-6.28v-1.23h1.23h44.41h1.23V905.17z
			 M663.66,817.07h6.76v56.96h-6.76V817.07z M715.76,963.36h-7.88h-0.82l-0.31-0.76l-5.48-13.24h-26.84l-5.56,13.25l-0.32,0.75
			h-0.82h-7.64h-1.88l0.76-1.72l25.1-56.96l0.32-0.73h0.8h6.36h0.81l0.32,0.75l24.22,56.96l0.73,1.71H715.76z M779.56,873.23
			c-3.62-1.5-6.76-3.58-9.41-6.23c-2.65-2.65-4.72-5.82-6.19-9.49c-1.48-3.67-2.21-7.66-2.21-11.95c0-4.29,0.74-8.27,2.21-11.95
			c1.47-3.67,3.54-6.84,6.19-9.49c2.65-2.65,5.79-4.73,9.41-6.23c3.62-1.5,7.6-2.25,11.95-2.25s8.33,0.75,11.95,2.25
			c3.62,1.5,6.76,3.58,9.41,6.23c2.65,2.65,4.72,5.82,6.19,9.49c1.47,3.67,2.21,7.66,2.21,11.95c0,4.29-0.74,8.27-2.21,11.95
			c-1.48,3.67-3.54,6.84-6.19,9.49c-2.65,2.65-5.79,4.73-9.41,6.23c-3.62,1.5-7.6,2.25-11.95,2.25S783.18,874.73,779.56,873.23z
			 M837.83,955.86v6.28v1.23h-1.23h-32.83h-1.23v-1.23v-56.96v-1.23h1.23h6.76h1.23v1.23v49.46h24.84h1.23V955.86z M917.22,868.52
			c-1.69-2.12-2.93-4.57-3.7-7.36c-0.78-2.79-1.17-5.74-1.17-8.85v-35.24h6.76v34.27c0,2.31,0.24,4.53,0.72,6.68
			c0.48,2.15,1.29,4.05,2.41,5.71c1.13,1.66,2.63,2.99,4.5,3.98c1.88,0.99,4.24,1.49,7.08,1.49c2.84,0,5.2-0.5,7.08-1.49
			c1.88-0.99,3.38-2.32,4.51-3.98c1.13-1.66,1.93-3.57,2.41-5.71c0.48-2.14,0.72-4.37,0.72-6.68v-34.27h6.76v35.24
			c0,3.11-0.39,6.06-1.17,8.85c-0.78,2.79-2.01,5.24-3.7,7.36c-1.69,2.12-3.9,3.81-6.64,5.07c-2.74,1.26-6.06,1.89-9.98,1.89
			c-3.92,0-7.24-0.63-9.98-1.89C921.12,872.33,918.91,870.64,917.22,868.52z M957.4,954.91c-1.21,2.24-2.83,4.12-4.82,5.6
			c-1.97,1.45-4.25,2.55-6.8,3.25c-2.51,0.7-5.14,1.05-7.81,1.05c-1.72,0-3.47-0.16-5.2-0.46c-1.73-0.31-3.42-0.79-5.03-1.44
			c-1.62-0.65-3.16-1.52-4.57-2.56c-1.45-1.07-2.71-2.4-3.75-3.97l-0.62-0.93l0.86-0.7l5.79-4.75l1.11-0.91l0.73,1.23
			c1.12,1.9,2.63,3.29,4.63,4.27c2.02,0.99,4.19,1.49,6.46,1.49c1.33,0,2.69-0.2,4.04-0.59c1.34-0.39,2.55-0.97,3.62-1.72
			c1.03-0.73,1.89-1.65,2.55-2.73c0.63-1.03,0.95-2.26,0.95-3.63c0-1.56-0.25-2.81-0.74-3.72c-0.49-0.91-1.27-1.72-2.32-2.41
			c-1.15-0.75-2.62-1.43-4.39-2.04c-1.88-0.64-4.08-1.39-6.57-2.24c-2.09-0.66-4.04-1.43-5.8-2.28c-1.83-0.89-3.44-1.99-4.78-3.28
			c-1.38-1.32-2.47-2.91-3.26-4.75c-0.79-1.83-1.18-4.04-1.18-6.56c0-2.92,0.59-5.52,1.75-7.73c1.15-2.19,2.73-4.05,4.69-5.52
			c1.93-1.45,4.14-2.55,6.58-3.29c2.41-0.73,4.97-1.1,7.6-1.1c3.35,0,6.46,0.53,9.24,1.57c2.84,1.06,5.41,2.93,7.63,5.55l0.78,0.92
			l-0.91,0.8l-5.55,4.83l-1.09,0.95l-0.76-1.23c-1-1.62-2.3-2.77-3.96-3.51c-1.71-0.76-3.52-1.14-5.38-1.14
			c-1.39,0-2.77,0.18-4.12,0.52c-1.32,0.34-2.51,0.86-3.54,1.53c-0.99,0.65-1.77,1.48-2.38,2.55c-0.59,1.04-0.89,2.3-0.89,3.74
			c0,1.13,0.17,2.12,0.51,2.96c0.33,0.81,0.88,1.56,1.65,2.23c0.82,0.72,1.96,1.41,3.39,2.05c1.51,0.68,3.38,1.36,5.58,2.04
			c2.22,0.7,4.39,1.47,6.47,2.28c2.16,0.84,4.11,1.93,5.78,3.23c1.72,1.34,3.1,3.03,4.12,5.04c1.02,2.02,1.54,4.55,1.54,7.51
			C959.24,949.96,958.62,952.65,957.4,954.91z M1081.55,866.23c-1.13,2.09-2.61,3.82-4.46,5.19c-1.85,1.37-3.98,2.39-6.4,3.06
			c-2.41,0.67-4.91,1.01-7.48,1.01c-1.66,0-3.33-0.15-4.99-0.44c-1.66-0.3-3.26-0.75-4.79-1.37c-1.53-0.62-2.97-1.42-4.3-2.41
			c-1.34-0.99-2.49-2.21-3.46-3.66l5.79-4.75c1.23,2.09,2.95,3.67,5.15,4.75c2.2,1.07,4.53,1.61,7,1.61c1.45,0,2.91-0.21,4.38-0.64
			c1.48-0.43,2.8-1.06,3.98-1.89c1.18-0.83,2.14-1.86,2.9-3.1c0.75-1.23,1.13-2.66,1.13-4.26c0-1.77-0.3-3.21-0.89-4.3
			c-0.59-1.1-1.5-2.05-2.74-2.86c-1.23-0.8-2.79-1.53-4.67-2.17c-1.88-0.64-4.08-1.39-6.6-2.25c-2.04-0.64-3.92-1.38-5.63-2.21
			c-1.72-0.83-3.21-1.85-4.47-3.06c-1.26-1.21-2.25-2.65-2.98-4.34c-0.72-1.69-1.09-3.71-1.09-6.07c0-2.74,0.54-5.12,1.61-7.16
			c1.07-2.04,2.52-3.74,4.34-5.11c1.82-1.37,3.89-2.4,6.19-3.1c2.31-0.7,4.72-1.05,7.24-1.05c3.22,0,6.15,0.5,8.81,1.49
			c2.66,0.99,5.03,2.72,7.12,5.19l-5.55,4.83c-1.13-1.82-2.63-3.15-4.51-3.98c-1.88-0.83-3.83-1.25-5.87-1.25
			c-1.5,0-2.98,0.19-4.43,0.56c-1.45,0.38-2.75,0.94-3.9,1.69c-1.15,0.75-2.08,1.74-2.78,2.98c-0.7,1.24-1.05,2.68-1.05,4.34
			c0,1.29,0.2,2.43,0.6,3.42c0.4,0.99,1.06,1.89,1.97,2.69c0.91,0.81,2.15,1.56,3.7,2.25c1.55,0.7,3.46,1.4,5.71,2.09
			c2.2,0.7,4.33,1.45,6.4,2.25c2.06,0.8,3.89,1.82,5.47,3.06c1.58,1.23,2.84,2.78,3.78,4.63c0.94,1.85,1.41,4.17,1.41,6.96
			C1083.24,861.67,1082.67,864.14,1081.55,866.23z"/>
		<path class="st0" d="M287.41,842.01c2.01-0.11,3.86-0.46,5.55-1.05c1.69-0.59,3.08-1.51,4.18-2.78c1.1-1.26,1.65-3.07,1.65-5.43
			c0-2.04-0.4-3.67-1.21-4.91c-0.8-1.23-1.86-2.19-3.18-2.86c-1.32-0.67-2.79-1.11-4.43-1.33c-1.64-0.21-3.29-0.32-4.95-0.32h-9.49
			v18.83h6.03C283.46,842.17,285.4,842.12,287.41,842.01z"/>
		<path class="st0" d="M812.38,854.76c1.1-2.87,1.65-5.94,1.65-9.21c0-3.27-0.55-6.34-1.65-9.21c-1.1-2.87-2.64-5.38-4.63-7.52
			c-1.98-2.14-4.36-3.83-7.12-5.07c-2.76-1.23-5.81-1.85-9.13-1.85c-3.33,0-6.37,0.62-9.13,1.85c-2.76,1.23-5.14,2.92-7.12,5.07
			c-1.99,2.15-3.53,4.65-4.63,7.52c-1.1,2.87-1.65,5.94-1.65,9.21c0,3.27,0.55,6.34,1.65,9.21c1.1,2.87,2.64,5.38,4.63,7.52
			c1.98,2.15,4.36,3.84,7.12,5.07c2.76,1.23,5.81,1.85,9.13,1.85c3.32,0,6.37-0.62,9.13-1.85c2.76-1.23,5.14-2.92,7.12-5.07
			C809.74,860.14,811.28,857.63,812.38,854.76z"/>
		<polygon class="st0" points="688.08,913.86 676.25,941.85 699.5,941.85 688.24,913.86 		"/>
		<path class="st0" d="M167.05,825.64c-2.12-1.53-4.87-2.29-8.25-2.29h-11.42v18.83h11.42c3.38,0,6.13-0.76,8.25-2.29
			c2.12-1.53,3.18-3.9,3.18-7.12C170.23,829.54,169.17,827.17,167.05,825.64z"/>
		<path class="st0" d="M625.76,628.18c13.98-26.89,20.98-46.97,20.98-60.24c0-10.03-4.84-15.06-14.52-15.06
			c-14.35,0-33.71,22.41-58.09,67.24c-18.65,33.71-27.97,57.2-27.97,70.46c0,9.33,3.58,15.6,10.76,18.83
			c2.5,1.08,5.02,1.61,7.53,1.61c11.47,0,21.69-10.22,30.66-30.66c-4.66-8.25-6.99-16.68-6.99-25.28c0-5.02,0.89-9.68,2.69-13.98
			C595.46,629.26,607.11,624.95,625.76,628.18z"/>
	</g>
</g>
</svg>
