<svg xmlns="http://www.w3.org/2000/svg" xmlns:xlink="http://www.w3.org/1999/xlink" viewBox="0 0 334.51 118.97"><defs><clipPath id="clip-path" transform="translate(0)"><rect width="334.51" height="118.97" fill="none"/></clipPath></defs><title>Asset 1</title><g id="Layer_2" data-name="Layer 2"><g id="Layer_1-2" data-name="Layer 1"><g clip-path="url(#clip-path)"><path d="M112.73,32.16a55.28,55.28,0,0,0-4.4-6.72c3,3.85,3,6.72.63,8.32a10.14,10.14,0,0,1-1.47.73,15.64,15.64,0,0,1-5.39.68h-.42a43.49,43.49,0,0,1-7.7-1q.38,3,.51,6.14c6.38,1.39,11.32,1.52,14.68.69,0,0,.68-.13,1-.22l.2-.06a7.84,7.84,0,0,0,1-.43c.26-.15.46-.27.64-.36h0l0,0a2.5,2.5,0,0,0,.34-.23c.24-.21.11.07.52,0s.31-.89.31-.89v0c1.18-1.59,1.12-3.79-.47-6.56M90.34,39.25c.1-2,.14-4,.1-6a95.38,95.38,0,0,1-19-7.61q-1.67,2.24-3.39,4.68a112.21,112.21,0,0,0,22.28,8.92M64.16,28.17q2-2.3,4-4.36c-5.72-3.32-10.61-7-13.71-10.49-2.13.74-4.25,1.59-6.33,2.54,3.63,4.11,9.36,8.42,16.07,12.31m-10.53-25a12.93,12.93,0,0,1,4.88-.91c-1,0-2.43.15-3.48.22C53.5,2.65,51.47,3,50,3.2a11.54,11.54,0,0,0-2.79.8,53.66,53.66,0,0,1,6.47-.79M52.37,4a57.26,57.26,0,0,0-6.69.93c-2.19,1.8-2.13,4.78.59,8.67,2.17-.84,4.38-1.57,6.61-2.19C50.55,8.05,50.51,5.51,52.37,4" transform="translate(0)" fill="#c7e3bb"/><path d="M159,26.53a9.79,9.79,0,0,1-9.23,5.57c-5.62,0-9.82-4.11-9.82-10.64s4-10.6,9.87-10.6a9.76,9.76,0,0,1,8.77,4.79l6.31-1.73c-2.1-5-7.41-9-14.81-9-9.46,0-16.54,6.72-16.54,16.54,0,10,7.08,16.68,16.54,16.68a15.84,15.84,0,0,0,15.17-9.92Zm31.3,4.57,2.42,6.4h6.81l-12.79-32h-7.18l-12.79,32h6.72l2.42-6.4Zm-2.24-5.76h-10l2.7-7c1.1-2.78,2.19-5.57,2.24-5.62h.13c.05.05,1.15,2.88,2.24,5.62ZM224.84,37.5h6.44v-32h-6.35V19c0,3.52.09,7.5.09,7.55h-.13L209.58,5.51h-6.45v32h6.35V24.06c0-4.07-.08-7.9-.08-7.95h.13Zm33.59-6.4,2.42,6.4h6.81l-12.8-32h-7.17l-12.8,32h6.72L244,31.1Zm-2.24-5.76h-10l2.69-7c1.1-2.78,2.19-5.57,2.24-5.62h.14c0,.05,1.14,2.88,2.24,5.62ZM271.27,5.51v32h12.88c9.51,0,16.77-6.08,16.77-15.86S293.7,5.51,284.06,5.51Zm6.35,26.09V11.4h6.08c5.66,0,10.83,3.29,10.83,10.24s-5.17,10-10.74,10Zm47.66-.5,2.42,6.4h6.81l-12.8-32h-7.17l-12.79,32h6.71l2.42-6.4ZM323,25.34h-10l2.69-7c1.1-2.78,2.2-5.57,2.24-5.62h.14c.05.05,1.14,2.88,2.24,5.62Z" transform="translate(0)" fill="#4cb748"/><path d="M159,107.08a9.79,9.79,0,0,1-9.23,5.57c-5.62,0-9.82-4.11-9.82-10.65,0-6.39,4-10.6,9.87-10.6a9.75,9.75,0,0,1,8.77,4.8l6.31-1.73c-2.1-5-7.41-9-14.81-9-9.46,0-16.54,6.71-16.54,16.54,0,10,7.08,16.68,16.54,16.68a15.84,15.84,0,0,0,15.17-9.92Zm9.09-5c0,9.82,7.13,16.59,16.77,16.59s16.78-6.77,16.78-16.59-7.13-16.63-16.78-16.63-16.77,6.76-16.77,16.63m6.4,0c0-6.53,4.48-10.65,10.37-10.65s10.38,4.12,10.38,10.65-4.48,10.6-10.38,10.6-10.37-4.11-10.37-10.6m49.81-1.23a6.81,6.81,0,0,0,4.39-6.59c0-4.47-3.88-8.17-9.69-8.17H206v32h13.3c7.63,0,11.28-4.11,11.28-9.18a7.9,7.9,0,0,0-6.26-7.86Zm-12-1.78V91.36h5.44c2.83,0,4.52,1.6,4.52,3.84,0,2.42-1.78,3.84-4.39,3.84Zm0,13.7v-8.91h6.4c3,0,5.16,1.65,5.16,4.53s-1.92,4.38-5.16,4.38Zm43.77-1.09,2.43,6.39h6.81l-12.8-32h-7.17l-12.8,32h6.72l2.42-6.39Zm-2.23-5.76h-10l2.7-7c1.1-2.79,2.19-5.57,2.24-5.62H249s1.14,2.88,2.24,5.62ZM268.94,118h21.52v-5.89H275.29V86.06h-6.35ZM314.72,92V86.06H288V92h10.19V118h6.35V92Z" transform="translate(0)" fill="#2a4da1"/><path d="M64.78,109.71a40,40,0,0,0,4-2.92c9.43,2,16.65,2.12,21,.55a46.9,46.9,0,0,1-5.65,2.88c-4.06,1.44-10.71,1.37-19.41-.51M32.43,97.53c.36-1.22.79-2.54,1.29-4a148.77,148.77,0,0,0,29.57,11.85,41.58,41.58,0,0,1-3.59,3A137.51,137.51,0,0,1,32.43,97.53M8,79.83a37.32,37.32,0,0,1-.78-5.44C12,79.83,19.64,85.56,28.55,90.72c-.38,1.48-.67,2.87-.89,4.17C19.45,90.13,12.43,84.85,8,79.83M2,65.3,2,65A14.54,14.54,0,0,0,4.8,71.36a40.92,40.92,0,0,0,1,5.67,15.46,15.46,0,0,1-2.35-4.7c-.47-2.1-1.07-4.91-1.37-7" transform="translate(0)" fill="#c7e3bb"/><path d="M113.69,80.22a50.63,50.63,0,0,0,1.89-6.5,6.3,6.3,0,0,0,2.92-4c-.33,1.32-.73,3.09-1.12,4.4l-.94,2.83a6.73,6.73,0,0,1-2.75,3.32m-26.76.58c.9-2.14,1.73-4.31,2.47-6.51,10.64,2.31,18.76,2.39,23.72.63a54.13,54.13,0,0,1-2,6.52c-5.07,1.8-13.37,1.71-24.24-.64M46.52,65.59c1.09-2.07,2.22-4.13,3.36-6.17A168.6,168.6,0,0,0,83.19,72.77Q82,76,80.58,79.24A171.42,171.42,0,0,1,46.52,65.59M16,43.48a68,68,0,0,1,4-5.69c5.43,6.14,14,12.58,24,18.41-1.2,2-2.37,4-3.49,6.1-10.26-6-19-12.55-24.58-18.82M12.72,25.72c.87-1.07,2-2.53,2.91-3.57-2.43,2.74-2,6.9,1.67,12.22A63.65,63.65,0,0,0,13.22,40C9.71,35,9.1,31,11,28.18Z" transform="translate(0)" fill="#c7e3bb"/><path d="M52.88,11.37c-2.23.63-4.44,1.36-6.61,2.21a70.6,70.6,0,0,0-29,20.79A63.65,63.65,0,0,0,13.22,40a57.39,57.39,0,0,0-3.06,5.33,47.36,47.36,0,0,0-5.36,26,39.4,39.4,0,0,0,1,5.68,38.27,38.27,0,0,0,5.59,12.54l2.08,2.83c.6.73,1.39,1.71,2,2.42A33.54,33.54,0,0,1,8,79.83a37.32,37.32,0,0,1-.78-5.44c-.56-8,1.25-16.73,5.74-25.57a61.16,61.16,0,0,1,3-5.34,66.43,66.43,0,0,1,4-5.69A76.21,76.21,0,0,1,48.09,15.86c2.08-.95,4.2-1.8,6.33-2.54,10.13-3.51,20.72-4.6,30.49-2.6a61.46,61.46,0,0,0-32,.65" transform="translate(0)" fill="#c7e3bb"/><path d="M112.35,79a70.67,70.67,0,0,0-2.84-35.54c-.76-2.21-1.63-4.36-2.59-6.47a61.46,61.46,0,0,0-20.2-24.87c7.84,6.16,13.85,14.94,17.71,25q1.23,3.16,2.16,6.47A76.45,76.45,0,0,1,108,79.1a68.18,68.18,0,0,1-1.74,6.75q-.91,2.94-2.11,5.77A56.07,56.07,0,0,1,98.33,102l4.82-4.38,2.46-.16a51.84,51.84,0,0,0,3-6,60.25,60.25,0,0,0,2.09-5.77A62.61,62.61,0,0,0,112.35,79" transform="translate(0)" fill="#c7e3bb"/><path d="M68.13,23.81c-1.31,1.38-2.64,2.83-4,4.36a196.34,196.34,0,0,0-20.1,28c-1.2,2-2.37,4-3.5,6.1Q39.08,65,37.68,67.76a116,116,0,0,0-9.13,23c-.38,1.47-.67,2.86-.89,4.16-1,6.17-.26,10.34,2.3,11.84l1.16.65,1,.52c-1.55-.83-1.39-4.5.35-10.37.36-1.22.79-2.54,1.28-3.94a198.28,198.28,0,0,1,10-22.52c.93-1.82,1.88-3.66,2.85-5.48q1.65-3.11,3.36-6.17A330.12,330.12,0,0,1,68.06,30.33c1.14-1.63,2.28-3.19,3.39-4.68,5.26-7,10-12.37,13.46-14.93-4.7,1.88-10.57,6.58-16.78,13.09" transform="translate(0)" fill="#c7e3bb"/><path d="M90.44,33.26c0,2,0,4-.1,6A116.12,116.12,0,0,1,83.2,72.77c-.81,2.18-1.69,4.34-2.62,6.47-.83,1.88-1.7,3.74-2.63,5.57-4.48,8.84-9.55,15.81-14.67,20.62a40,40,0,0,1-3.58,3c-5.38,4-10.68,5.55-15.27,4.31l1.92.49,1.45.32c5.4,1.1,11.26-.27,17-3.87a40,40,0,0,0,4-2.92c5.67-4.68,11-11.57,15.53-20.41q1.4-2.75,2.6-5.58c.9-2.14,1.73-4.31,2.47-6.51a95,95,0,0,0,5.09-34q-.13-3.14-.51-6.14c-1.19-9.47-4.21-17.71-9.07-23.41,3.55,5.37,5.35,13.32,5.53,22.54" transform="translate(0)" fill="#c7e3bb"/><path d="M107.83,24.79c-1-1.2-2.34-2.79-3.4-3.95-4.74-5.05-11.33-8.63-19.52-10.12,9.89,2.36,17.67,7.37,22.92,14.07" transform="translate(0)" fill="#2a4da1"/><path d="M90.51,10l-.36-.2c-.52-.28-1.21-.65-1.74-.92s-1.79.24-3.5,1.83c2.46-1.23,4.33-1.43,5.6-.71" transform="translate(0)" fill="#2a4da1"/><path d="M75.72,4.13l-.8-.2c-.82-.18-1.92-.43-2.75-.59,4.6.85,8.76,1.29,12.55,5.41-2.62-3.57-5.56-3.76-9-4.62" transform="translate(0)" fill="#2a4da1"/><path d="M53.63,3.21A53.42,53.42,0,0,0,47.16,4,51.59,51.59,0,0,0,35.5,7.63l-.21.1a59.7,59.7,0,0,0-8.54,4.74c-1.45,1.06-3.4,2.46-4.8,3.58A53.35,53.35,0,0,1,45.68,4.9,55.2,55.2,0,0,1,52.37,4a60.36,60.36,0,0,1,32.69,6.14A56.15,56.15,0,0,0,53.63,3.21" transform="translate(0)" fill="#2a4da1"/><path d="M111.15,29.85a18.71,18.71,0,0,1,1.58,2.31,54.7,54.7,0,0,0-4.4-6.72l-.15-.2a35.48,35.48,0,0,1,3,4.61m-48.94-26a23.58,23.58,0,0,1,4.25-.76,36.93,36.93,0,0,0-7.95-.79c-1,.06-2.44.12-3.48.22C53.5,2.71,51.47,3,50,3.2c3-.52,7.18-.33,12.26.65m26.62,7c.19-.83.1,1,.15.36A93.22,93.22,0,0,0,69.92,3.86c-1.2.17,3.21-.47,2,0M109.29,27.7a31.08,31.08,0,0,0-2.69-4.28A61.81,61.81,0,0,0,92.35,13c.16.72,1.42.34,1.42,1.27,6.84,3.83,11.6,9.33,15.52,13.46" transform="translate(0)" fill="#2a4da1"/><path d="M112.4,64.86c3.89,5,5.12,9,4,12l.94-2.83c.34-1.32.84-3.07,1.12-4.4.6-2.84-.71-6.54-4.18-11a53.14,53.14,0,0,1-1.92,6.16M12.31,26.71a51.2,51.2,0,0,1,4.11-5.32,8.17,8.17,0,0,0-.79.76c-.87,1.07-2.08,2.47-2.91,3.57L11,28.18a7.38,7.38,0,0,1,1.34-1.47m25.27-1.59q1.71-2.82,3.56-5.29c-10.28-2-18-1.79-22.51.23a49.38,49.38,0,0,0-4.06,5.29c4.61-2.07,12.5-2.27,23-.23M78,39.61c1-2,1.84-3.81,2.67-5.6A164,164,0,0,0,47.21,21.2q-1.76,2.49-3.42,5.31A168.47,168.47,0,0,1,78,39.61m31.59,22a54.39,54.39,0,0,0,2-6.08c-5.86-6.18-14.75-12.6-25-18.33C85.78,39,84.94,40.89,84,42.85c10.46,5.85,19.55,12.42,25.54,18.73" transform="translate(0)" fill="#2a4da1"/><path d="M86.2,109.24a50.63,50.63,0,0,0,5.83-3c3.82-2.5,3.75-7.12-1.12-13.33-1.85,1.42-3.77,2.76-5.74,4,4.5,5.73,4.56,10,1,12.29M5,66.41a54.65,54.65,0,0,1-1-6.57A5.49,5.49,0,0,0,2,65l0,.26c.35,2.12.88,4.94,1.37,7A5.33,5.33,0,0,1,5,66.41m20.23-1.28q.21-3.31.68-6.68c-9.12-1.77-16-1.6-20,.2a55.84,55.84,0,0,0,.87,6.67c3.69-1.66,10-1.82,18.42-.19M57.6,76.73Q59.29,73.94,61,71A145.86,145.86,0,0,0,31.35,59.66q-.66,3.31-1.11,6.59A134.48,134.48,0,0,1,57.6,76.73M82.89,94.32q2.86-2,5.55-4.22c-5.21-5.48-13.09-11.17-22.17-16.26q-1.9,2.8-3.82,5.48c8.37,4.69,15.64,10,20.44,15" transform="translate(0)" fill="#2a4da1"/><path d="M110,70.34c-12.42,24.48-41.59,40.16-67.48,37.2-.1-.13-.21-.26-.34-.4,13.56.74,28.24-4.15,40.74-12.82q2.86-2,5.55-4.22A73.61,73.61,0,0,0,107.1,67c.93-1.83,1.74-3.65,2.45-5.46a54.39,54.39,0,0,0,2-6.08c2.7-10.36,1.79-20-2.24-27.8a30.21,30.21,0,0,0-2.7-4.28,29.5,29.5,0,0,0-2.16-2.58c1,1.17,2.41,2.74,3.4,3.95,9.22,11.76,10.68,28.71,2.14,45.55" transform="translate(0)" fill="#2a4da1"/><path d="M92.35,13a11.52,11.52,0,0,1,.24,2.48c0,4.79-2,12.32-6,21.72C85.78,39,84.93,40.89,84,42.85c-.81,1.72-1.68,3.51-2.6,5.33A244.94,244.94,0,0,1,66.27,73.84q-1.9,2.8-3.82,5.48C54.05,91,45.55,100.42,39,104.86l-.73-.39c4.83-5.34,11.86-15.54,19.29-27.74Q59.29,73.94,61,71c4.88-8.3,9.82-17.26,14.3-26.1.93-1.83,1.81-3.61,2.65-5.32,1-2,1.84-3.81,2.67-5.6,4.3-9.25,7-16.39,8-20.68A15.71,15.71,0,0,0,89,11.16c.1-1.25-.08-2-.57-2.27.53.27,1.22.64,1.74.92l.36.2a4.12,4.12,0,0,1,1.84,3" transform="translate(0)" fill="#2a4da1"/><path d="M69.93,3.86a19.34,19.34,0,0,0-3.66.9C59.92,7,53.23,12.62,47.21,21.2q-1.76,2.49-3.42,5.31c-1,1.67-1.94,3.41-2.87,5.24a109.7,109.7,0,0,0-9.57,27.91q-.66,3.31-1.11,6.59c-1.93,14.3-.7,27.67,3.91,36.63l-.2,0-.55-.12c-6.33-9.34-9.06-23-8.13-37.58q.21-3.31.69-6.68a90.06,90.06,0,0,1,8.71-28.1q1.39-2.75,2.91-5.23c1.14-1.87,2.33-3.64,3.55-5.29,6.34-8.51,13.74-14,21.08-16a24.49,24.49,0,0,1,4.25-.76,21.36,21.36,0,0,1,5.71.25c.82.17,1.93.4,2.75.59l.8.2a15,15,0,0,0-5.79-.27" transform="translate(0)" fill="#2a4da1"/><path d="M18.63,20.06a47.18,47.18,0,0,0-4.06,5.29,49,49,0,0,0-3.05,5.23A53.26,53.26,0,0,0,6,58.65a58,58,0,0,0,.87,6.67A60.67,60.67,0,0,0,30.6,102.74a.88.88,0,0,0-.27.16A59.62,59.62,0,0,1,5,66.41a56.39,56.39,0,0,1-1-6.57A50.9,50.9,0,0,1,9.25,32a50.19,50.19,0,0,1,3.06-5.24,51.2,51.2,0,0,1,4.11-5.32A49.77,49.77,0,0,1,22,16.05c1.42-1.09,3.32-2.56,4.8-3.58a57.89,57.89,0,0,1,8.54-4.74l.21-.1A49.29,49.29,0,0,0,18.63,20.06" transform="translate(0)" fill="#2a4da1"/><path d="M30.44,104.52l.13.18.2.24A35.53,35.53,0,0,1,15.45,94.82c-.6-.73-1.43-1.68-2-2.42l-2.08-2.83a41.43,41.43,0,0,0,19.08,15" transform="translate(0)" fill="#2a4da1"/><path d="M33.76,107.23l.72.4a2.72,2.72,0,0,1-2.4.27l-1-.52L30,106.72a5.5,5.5,0,0,0,3.8.51" transform="translate(0)" fill="#2a4da1"/><path d="M38.63,109.29l.49.12.28.07a19.06,19.06,0,0,0,8.4,4.1l-1.45-.32-1.92-.49a12.86,12.86,0,0,1-5.8-3.48" transform="translate(0)" fill="#2a4da1"/><path d="M42.35,109.56l.3-.15a56.8,56.8,0,0,0,43.55-.17,50.63,50.63,0,0,0,5.83-3c.74-.43,1.47-.89,2.19-1.36-1.29.78-3,1.86-4.31,2.58a59.07,59.07,0,0,1-8.62,3.86,52.35,52.35,0,0,1-38.94-1.8" transform="translate(0)" fill="#2a4da1"/><path d="M60.6,5A55.67,55.67,0,0,0,11.31,34.4,53.43,53.43,0,0,0,7.52,75.74a54.17,54.17,0,0,0,27.25,32.09c27.08,13.86,60.59,3.42,74.72-23.26a53.43,53.43,0,0,0,3.78-41.34A54.13,54.13,0,0,0,86,11.13,55.75,55.75,0,0,0,60.6,5m-.42,114a60.63,60.63,0,0,1-27.69-6.68A59.17,59.17,0,0,1,2.74,77.24,58.36,58.36,0,0,1,6.88,32.06C22.28,3,58.81-8.42,88.31,6.68a59.12,59.12,0,0,1,29.74,35.05,58.37,58.37,0,0,1-4.14,45.18A60.69,60.69,0,0,1,60.18,119" transform="translate(0)" fill="#a0b4bf"/><path d="M265.78,61.85V52h5.36c3.66,0,5.68,1.74,5.68,5s-2.11,4.81-5.59,4.81Zm11,16.39h7.55l-7.55-12.5c4.12-1.28,6.5-4.39,6.5-9,0-6.5-4.63-10.53-12.55-10.53H259.42V78.24h6.36V67h4.58Zm-45.28,0h22.94V72.33H237.91V64.78h12.31v-6H237.91V52.1H254.3V46.19H231.54Zm-15.37,0,11.85-32h-6.87l-5.53,15.89c-2.16,6.09-3.16,9.15-3.21,9.24h-.14c0-.09-1.09-3.2-3.29-9.38l-5.49-15.75H196.3l11.85,32.05Zm-39.46,0h21.56V72.33h-15.2V46.19h-6.36Zm-12.13,0h6.36v-32h-6.36Zm-29.67-8.15c1.56,7,7.83,8.74,13.32,8.74,7.6,0,12.09-3.2,12.09-9.57,0-7-5.4-8.83-10.16-9.75-4.49-.91-7.88-1.51-7.88-4.71,0-2.24,1.56-3.62,5.08-3.62,3.71,0,5.82,1.51,6.64,4.21l6.09-1.6c-1.69-5.63-6.27-8.24-12.59-8.24-7.05,0-11.72,3.21-11.72,9.43,0,6.69,5.45,8.56,9.8,9.57,4,1,8.28.92,8.28,4.71,0,2.66-2.15,4-5.63,4-3.93,0-6.73-1.65-7.23-4.81Z" transform="translate(0)" fill="#5d7987"/></g></g></g></svg>